<?xml version="1.0" encoding="UTF-8" standalone="no"?>
<svg
   xmlns:dc="http://purl.org/dc/elements/1.1/"
   xmlns:cc="http://creativecommons.org/ns#"
   xmlns:rdf="http://www.w3.org/1999/02/22-rdf-syntax-ns#"
   xmlns:svg="http://www.w3.org/2000/svg"
   xmlns="http://www.w3.org/2000/svg"
   xmlns:sodipodi="http://sodipodi.sourceforge.net/DTD/sodipodi-0.dtd"
   xmlns:inkscape="http://www.inkscape.org/namespaces/inkscape"
   enable-background="new 0 0 512 512"
   height="32"
   id="Layer_1"
   version="1.1"
   viewBox="0 0 32 32"
   width="32"
   xml:space="preserve"
   sodipodi:docname="yandex.svg"
   inkscape:version="0.92.2 2405546, 2018-03-11"><metadata
     id="metadata12"><rdf:RDF><cc:Work
         rdf:about=""><dc:format>image/svg+xml</dc:format><dc:type
           rdf:resource="http://purl.org/dc/dcmitype/StillImage" /><dc:title></dc:title></cc:Work></rdf:RDF></metadata><defs
     id="defs10" /><sodipodi:namedview
     pagecolor="#ffffff"
     bordercolor="#666666"
     borderopacity="1"
     objecttolerance="10"
     gridtolerance="10"
     guidetolerance="10"
     inkscape:pageopacity="0"
     inkscape:pageshadow="2"
     inkscape:window-width="1600"
     inkscape:window-height="836"
     id="namedview8"
     showgrid="false"
     fit-margin-top="0"
     fit-margin-left="0"
     fit-margin-right="0"
     fit-margin-bottom="0"
     inkscape:zoom="1.84375"
     inkscape:cx="106.77177"
     inkscape:cy="90.840429"
     inkscape:window-x="0"
     inkscape:window-y="0"
     inkscape:window-maximized="1"
     inkscape:current-layer="Layer_1" /><g
     id="g4"
     transform="matrix(0.06282147,0,0,0.06282147,-0.08229613,-0.08229613)"><path
       d="m 510.689,478.854 c 0,17.561 -14.275,31.836 -31.836,31.836 H 33.146 C 15.587,510.69 1.31,496.415 1.31,478.854 V 33.146 C 1.31,15.586 15.587,1.31 33.146,1.31 h 445.707 c 17.561,0 31.836,14.276 31.836,31.836 z"
       id="path2"
       inkscape:connector-curvature="0"
       style="fill:#ed1f24" /></g><path
     d="m 19.610664,6.5369539 h -2.86768 c -2.81779,0 -5.2074,2.14485 -5.2074,6.3089701 0,2.4981 1.15718,4.33996 3.2196,5.24855 l -3.84856,6.96495 c -0.12596,0.22735 0,0.40369 0.20115,0.40369 h 1.7862 c 0.15077,0 0.25192,-0.0503 0.30217,-0.17634 l 3.49658,-6.83893 h 1.25775 v 6.83893 c 0,0.0752 0.0752,0.17634 0.17584,0.17634 h 1.55998 c 0.15077,0 0.20122,-0.0757 0.20122,-0.20134 V 6.7893039 c -6e-5,-0.17665 -0.1007,-0.25235 -0.27685,-0.25235 z m -1.66025,10.2960601 h -1.05653 c -1.66018,0 -3.27005,-1.21126 -3.27005,-4.23938 0,-3.1548901 1.50923,-4.4417901 3.04358,-4.4417901 h 1.28306 v 8.6811701 z"
     id="path40"
     inkscape:connector-curvature="0"
     style="fill:#ffffff;stroke-width:0.06282147" /></svg>