<?xml version="1.0" encoding="utf-8"?>
<!-- Generator: Adobe Illustrator 22.0.1, SVG Export Plug-In . SVG Version: 6.00 Build 0)  -->
<svg version="1.1"
	 id="flag-icon-css-ru" inkscape:version="0.92.2 2405546, 2018-03-11" sodipodi:docname="gl.svg" xmlns:cc="http://creativecommons.org/ns#" xmlns:dc="http://purl.org/dc/elements/1.1/" xmlns:inkscape="http://www.inkscape.org/namespaces/inkscape" xmlns:rdf="http://www.w3.org/1999/02/22-rdf-syntax-ns#" xmlns:sodipodi="http://sodipodi.sourceforge.net/DTD/sodipodi-0.dtd" xmlns:svg="http://www.w3.org/2000/svg"
	 xmlns="http://www.w3.org/2000/svg" xmlns:xlink="http://www.w3.org/1999/xlink" x="0px" y="0px" viewBox="0 0 640 480"
	 style="enable-background:new 0 0 640 480;" xml:space="preserve">
<style type="text/css">
	.st0{fill:#FFFFFF;}
	.st1{fill:#0099CC;}
	.st2{fill:#005BBF;}
	.st3{fill:none;stroke:#000000;stroke-width:1.0064;}
	.st4{fill:#D81126;}
	.st5{fill:none;stroke:#000000;stroke-width:1.5084;}
	.st6{fill:#BCAC0B;}
	.st7{fill:#C8B100;fill-opacity:0.9412;}
	.st8{fill:none;stroke:#000000;stroke-width:0.2522;}
	.st9{fill:#CCCCCC;}
	.st10{fill:#FFCC00;}
	.st11{fill:#BCAC0B;stroke:#000000;stroke-width:0.502;}
	.st12{fill:#BCAC0B;stroke:#000000;stroke-width:0.6533;}
	.st13{fill:none;stroke:#000000;stroke-width:0.6533;}
	.st14{fill:none;stroke:#000000;stroke-width:0.502;}
	.st15{fill:#058E6E;fill-opacity:0.9412;}
	.st16{fill:#FF0000;}
	.st17{fill:none;stroke:#000000;stroke-width:0.4035;}
</style>
<sodipodi:namedview  bordercolor="#666666" borderopacity="1" gridtolerance="10" guidetolerance="10" id="namedview11" inkscape:current-layer="flag-icon-css-ru" inkscape:cx="320" inkscape:cy="240" inkscape:pageopacity="0" inkscape:pageshadow="2" inkscape:window-height="840" inkscape:window-maximized="1" inkscape:window-width="1600" inkscape:window-x="0" inkscape:window-y="30" inkscape:zoom="0.49166667" objecttolerance="10" pagecolor="#ffffff" showgrid="false">
	</sodipodi:namedview>
<g id="g5162" transform="matrix(1.1983051,0,0,1.1983961,-0.04798035,-114.42496)">
	<rect id="rect733" x="0" y="96" class="st0" width="534.1" height="400"/>
	<path id="path556" inkscape:connector-curvature="0" class="st1" d="M534.1,437.8L76.6,96H0V153l459.2,343h74.9V437.8"/>
</g>
<g id="g4979" transform="matrix(1.1983051,0,0,1.1983961,-0.04798035,-114.42496)">
	<path id="path558" inkscape:connector-curvature="0" class="st2" d="M264.1,401.2c-53.5,0-51.8-56.6-51.8-56.6v-86.8h103.6v86.8
		C315.9,344.7,317.7,401.2,264.1,401.2"/>
	<path id="path559" inkscape:connector-curvature="0" class="st3" d="M264.1,401.2c-53.5,0-51.8-56.6-51.8-56.6v-86.8h103.6v86.8
		C315.9,344.7,317.7,401.2,264.1,401.2L264.1,401.2z"/>
	<path id="path560" inkscape:connector-curvature="0" class="st4" d="M263.6,203.2c0,0-11-6-21.5,2.9c0,0-18.8-3-20.2,17.2
		c-0.1,0.8-0.2,2.3,0.2,2.8c0.3,0.4,0.7,1.3,0.7,1.8c0,0.6,0.3,0.9,0.4,1.1c0.1,0.3,0.4,0.6,0.4,1.7c0.1,1.1-0.1,1.6,0.8,2.6
		c0.9,1.1,0.9,4.2,0.9,5c0,0.9,0.6,3.3,1,3.8c0.4,0.5,1.1,1.8,1.1,2.8c0,1.1,0.4,4,0.2,4.8c-0.2,0.8,1,1.7,2.1,2.1
		c1.1,0.4,14.3,5.2,33.5,4.8c19.3-0.4,26.2-1.5,34.1-4.8c1.2-0.5,1.5-1.6,1.3-2.3c-0.1-0.6,0-2.6,0.3-3.1c0.3-0.5,2.6-4.5,2.1-5.3
		c-0.4-0.8-0.4-2.4,0-3c0.4-0.6,1.8-3.7,2.1-4.9c0.3-1.3,0.3-2.7,0.8-3.2c0.5-0.4,0.7-1.9,0.8-2.1c0.1-0.3,0.5-1.2,1-1.6
		c0,0,1-5.1,0.4-7.6c-0.6-2.5-4-13.3-17.6-11.1C288.7,207.6,278.5,199,263.6,203.2"/>
	<path id="path561" inkscape:connector-curvature="0" class="st5" d="M263.6,203.2c0,0-11-6-21.5,2.9c0,0-18.8-3-20.2,17.2
		c-0.1,0.8-0.2,2.3,0.2,2.8c0.3,0.4,0.7,1.3,0.7,1.8c0,0.6,0.3,0.9,0.4,1.1c0.1,0.3,0.4,0.6,0.4,1.7c0.1,1.1-0.1,1.6,0.8,2.6
		c0.9,1.1,0.9,4.2,0.9,5c0,0.9,0.6,3.3,1,3.8c0.4,0.5,1.1,1.8,1.1,2.8c0,1.1,0.4,4,0.2,4.8c-0.2,0.8,1,1.7,2.1,2.1
		c1.1,0.4,14.3,5.2,33.5,4.8c19.3-0.4,26.2-1.5,34.1-4.8c1.2-0.5,1.5-1.6,1.3-2.3c-0.1-0.6,0-2.6,0.3-3.1c0.3-0.5,2.6-4.5,2.1-5.3
		c-0.4-0.8-0.4-2.4,0-3c0.4-0.6,1.8-3.7,2.1-4.9c0.3-1.3,0.3-2.7,0.8-3.2c0.5-0.4,0.7-1.9,0.8-2.1c0.1-0.3,0.5-1.2,1-1.6
		c0,0,1-5.1,0.4-7.6c-0.6-2.5-4-13.3-17.6-11.1C288.7,207.6,278.5,199,263.6,203.2L263.6,203.2z"/>
	<path id="path562" inkscape:connector-curvature="0" class="st6" d="M300.6,240.8c-41.9-14.9-74.3-0.7-74.3-0.7s0.3,1.6,0.7,2.1
		c0.4,0.5,0.9,1.7,0.9,2.6c0,0.9,0.1,2.1,0.1,2.8c0,0.7-0.5,3.7,1.9,3.6c0,0,29.1-12.8,67.1,0.7c0,0,1-1,1.1-2.6
		c0-1.5,0.3-3.1,0.8-3.9C299.4,244.6,300.6,242,300.6,240.8"/>
	<path id="path563" inkscape:connector-curvature="0" class="st7" d="M261.7,319.3h-18.2c0,0-1.8,18.3,12.2,23.8v1.7h3v2.2
		c0,0-5.1,5.2-0.7,11.1v1.8h0.7v2.9h0.8v4.8c0,0-0.7,17.1-15.6,25.2v1h39.7v-1c-14.9-8.2-15.6-25.2-15.6-25.2v-4.8h0.8V360h0.7v-1.8
		c4.5-6-0.7-11.1-0.7-11.1v-2.2h3v-1.7c14-5.5,12.2-23.8,12.2-23.8L261.7,319.3"/>
	<path id="path564" inkscape:connector-curvature="0" class="st3" d="M261.7,319.3h-18.2c0,0-1.8,18.3,12.2,23.8v1.7h3v2.2
		c0,0-5.1,5.2-0.7,11.1v1.8h0.7v2.9h0.8v4.8c0,0-0.7,17.1-15.6,25.2v1h39.7v-1c-14.9-8.2-15.6-25.2-15.6-25.2v-4.8h0.8V360h0.7v-1.8
		c4.5-6-0.7-11.1-0.7-11.1v-2.2h3v-1.7c14-5.5,12.2-23.8,12.2-23.8L261.7,319.3L261.7,319.3z"/>
	<path id="path565" inkscape:connector-curvature="0" class="st8" d="M255.1,342.9h17.6 M255.7,344.4h16.4 M258.7,346.9H269
		 M258,358.4h11.8 M258.8,359.8h10.3 M258.8,362.6H269 M252.5,385.8h22.7 M246.1,391.7h35.6 M244.8,392.6h38.3"/>
	<path id="path566" inkscape:connector-curvature="0" class="st9" d="M264.1,318.3c6.4,0,11.6-5.8,11.6-13c0-7.2-5.2-13-11.6-13
		c-6.4,0-11.6,5.8-11.6,13C252.4,312.4,257.6,318.3,264.1,318.3"/>
	<path id="path567" inkscape:connector-curvature="0" class="st3" d="M264.1,318.3c6.4,0,11.6-5.8,11.6-13c0-7.2-5.2-13-11.6-13
		c-6.4,0-11.6,5.8-11.6,13C252.4,312.4,257.6,318.3,264.1,318.3z"/>
	<path id="path568" inkscape:connector-curvature="0" class="st9" d="M237,280h-7.2v-8.1h-6.4v8.1h-7.2v7.2h7.2v8.1h6.4v-8.1h7.2
		V280"/>
	<path id="path569" inkscape:connector-curvature="0" class="st3" d="M237,280h-7.2v-8.1h-6.4v8.1h-7.2v7.2h7.2v8.1h6.4v-8.1h7.2
		V280"/>
	<path id="path570" inkscape:connector-curvature="0" class="st9" d="M312.3,280H305v-8.1h-6.4v8.1h-7.2v7.2h7.2v8.1h6.4v-8.1h7.2
		L312.3,280"/>
	<path id="path571" inkscape:connector-curvature="0" class="st3" d="M312.3,280H305v-8.1h-6.4v8.1h-7.2v7.2h7.2v8.1h6.4v-8.1h7.2
		L312.3,280"/>
	<path id="path572" inkscape:connector-curvature="0" class="st9" d="M274.1,269.7h-7.2v-8.1h-6.4v8.1h-7.2v7.2h7.2v8.1h6.4v-8.1
		h7.2V269.7"/>
	<path id="path573" inkscape:connector-curvature="0" class="st3" d="M274.1,269.7h-7.2v-8.1h-6.4v8.1h-7.2v7.2h7.2v8.1h6.4v-8.1
		h7.2V269.7"/>
	<path id="path574" inkscape:connector-curvature="0" class="st9" d="M237,315.2h-7.2V307h-6.4v8.1h-7.2v7.2h7.2v8.1h6.4v-8.1h7.2
		V315.2"/>
	<path id="path575" inkscape:connector-curvature="0" class="st3" d="M237,315.2h-7.2V307h-6.4v8.1h-7.2v7.2h7.2v8.1h6.4v-8.1h7.2
		V315.2"/>
	<path id="path576" inkscape:connector-curvature="0" class="st9" d="M312.3,315.2H305V307h-6.4v8.1h-7.2v7.2h7.2v8.1h6.4v-8.1h7.2
		L312.3,315.2"/>
	<path id="path577" inkscape:connector-curvature="0" class="st3" d="M312.3,315.2H305V307h-6.4v8.1h-7.2v7.2h7.2v8.1h6.4v-8.1h7.2
		L312.3,315.2"/>
	<path id="path578" inkscape:connector-curvature="0" class="st9" d="M237,350.7h-7.2v-8.1h-6.4v8.1h-7.2v7.2h7.2v8.1h6.4v-8.1h7.2
		V350.7"/>
	<path id="path579" inkscape:connector-curvature="0" class="st3" d="M237,350.7h-7.2v-8.1h-6.4v8.1h-7.2v7.2h7.2v8.1h6.4v-8.1h7.2
		V350.7"/>
	<path id="path580" inkscape:connector-curvature="0" class="st9" d="M312.3,350.7H305v-8.1h-6.4v8.1h-7.2v7.2h7.2v8.1h6.4v-8.1h7.2
		L312.3,350.7"/>
	<path id="path581" inkscape:connector-curvature="0" class="st3" d="M312.3,350.7H305v-8.1h-6.4v8.1h-7.2v7.2h7.2v8.1h6.4v-8.1h7.2
		L312.3,350.7"/>
	<path id="path582" inkscape:connector-curvature="0" class="st2" d="M264,185.8c3.8,0,7-3.5,7-7.8s-3.1-7.8-7-7.8s-7,3.5-7,7.8
		C257,182.3,260.1,185.8,264,185.8"/>
	<path id="path583" inkscape:connector-curvature="0" class="st3" d="M264,185.8c3.8,0,7-3.5,7-7.8s-3.1-7.8-7-7.8s-7,3.5-7,7.8
		C257,182.3,260.1,185.8,264,185.8z"/>
	<path id="path584" inkscape:connector-curvature="0" class="st10" d="M270.5,176.6h-5.7v-10.4h2.2v-2.1h-2.2v-2.5h-1.8v2.5h-2.2
		v2.1h2.2v10.4h-5.4v1.4h5.4v0.1h1.8V178h5.7V176.6"/>
	<path id="path585" inkscape:connector-curvature="0" class="st11" d="M270.5,176.6h-5.7v-10.4h2.2v-2.1h-2.2v-2.5h-1.8v2.5h-2.2
		v2.1h2.2v10.4h-5.4v1.4h5.4v0.1h1.8V178h5.7V176.6"/>
	<path id="path586" inkscape:connector-curvature="0" class="st10" d="M236.1,195.1c0,0,5.1-0.7,8.1,0.7c0,0-3.4,4.4-2.7,10.1
		c0.4,2.9,0.9,4.4,1.6,5.9c0.7,1.4,1.6,4.4,1.1,6.7h1c0,0,1-4.8-0.7-7.5c-1.6-2.7-2.5-6.4-0.8-10.2c1.6-3.9,4-5.4,4-5.4
		c2.8,1.3,8.6,0.1,10.2-1.3c1.6-1.3,2.5-3.2-0.6-3.4c-3.1-0.2-8.3-0.1-11.9,2.9c0,0-1.9-2.4-11.2-1.3c-9.3,1.2-16.1,5.6-18.1,15.1
		c-1,4.8,2.9,14.8,6.6,17.3c0,0-0.1-1.6,0.3-2.8c0,0-6.2-7.8-4.4-15.1C220.6,199.7,228,194.9,236.1,195.1"/>
	<path id="path587" inkscape:connector-curvature="0" class="st12" d="M236.1,195.1c0,0,5.1-0.7,8.1,0.7c0,0-3.4,4.4-2.7,10.1
		c0.4,2.9,0.9,4.4,1.6,5.9c0.7,1.4,1.6,4.4,1.1,6.7h1c0,0,1-4.8-0.7-7.5c-1.6-2.7-2.5-6.4-0.8-10.2c1.6-3.9,4-5.4,4-5.4
		c2.8,1.3,8.6,0.1,10.2-1.3c1.6-1.3,2.5-3.2-0.6-3.4c-3.1-0.2-8.3-0.1-11.9,2.9c0,0-1.9-2.4-11.2-1.3c-9.3,1.2-16.1,5.6-18.1,15.1
		c-1,4.8,2.9,14.8,6.6,17.3c0,0-0.1-1.6,0.3-2.8c0,0-6.2-7.8-4.4-15.1C220.6,199.7,228,194.9,236.1,195.1L236.1,195.1z"/>
	<path id="path588" inkscape:connector-curvature="0" class="st0" d="M253.6,193.7c1.6-0.1,2.9-0.5,2.9-0.7c0-0.2-1.3-0.3-3-0.2
		s-2.9,0.5-2.9,0.7C250.7,193.8,252,193.8,253.6,193.7"/>
	<path id="path589" inkscape:connector-curvature="0" class="st13" d="M247.7,195.4C247.7,195.4,245.9,197.4,247.7,195.4
		c1.8-1.9,5.7-3.3,7.9-2.7c2.2,0.6-0.4,0.9-1.1,0.9c-0.7,0.1-2.2,0.4-4.3,0"/>
	<path id="path590" inkscape:connector-curvature="0" class="st10" d="M291.7,195.8c0,0-5.1-0.7-8.1,0.7c0,0,3.4,4.4,2.7,10.1
		c-0.4,2.9-0.9,4.4-1.6,5.9c-0.7,1.4-1.6,4.4-1.1,6.7h-1c0,0-1-4.8,0.7-7.5c1.6-2.7,2.5-6.4,0.8-10.2c-1.6-3.9-4-5.4-4-5.4
		c-2.8,1.3-8.6,0.1-10.2-1.3c-1.6-1.3-2.5-3.2,0.6-3.4c3.1-0.2,8.3-0.1,11.9,2.9c0,0,1.9-2.4,11.2-1.3c9.3,1.2,16.1,5.6,18.1,15.1
		c1,4.8-2.9,14.8-6.6,17.3c0,0,0.1-1.6-0.3-2.8c0,0,6.2-7.8,4.4-15.1C307.3,200.3,299.8,195.5,291.7,195.8"/>
	<path id="path591" inkscape:connector-curvature="0" class="st12" d="M291.7,195.8c0,0-5.1-0.7-8.1,0.7c0,0,3.4,4.4,2.7,10.1
		c-0.4,2.9-0.9,4.4-1.6,5.9c-0.7,1.4-1.6,4.4-1.1,6.7h-1c0,0-1-4.8,0.7-7.5c1.6-2.7,2.5-6.4,0.8-10.2c-1.6-3.9-4-5.4-4-5.4
		c-2.8,1.3-8.6,0.1-10.2-1.3c-1.6-1.3-2.5-3.2,0.6-3.4c3.1-0.2,8.3-0.1,11.9,2.9c0,0,1.9-2.4,11.2-1.3c9.3,1.2,16.1,5.6,18.1,15.1
		c1,4.8-2.9,14.8-6.6,17.3c0,0,0.1-1.6-0.3-2.8c0,0,6.2-7.8,4.4-15.1C307.3,200.3,299.8,195.5,291.7,195.8L291.7,195.8z"/>
	<path id="path592" inkscape:connector-curvature="0" class="st0" d="M274.2,194.3c-1.6-0.1-2.9-0.5-2.9-0.7c0-0.2,1.3-0.3,3-0.2
		s2.9,0.5,2.9,0.7C277.1,194.4,275.8,194.5,274.2,194.3"/>
	<path id="path593" inkscape:connector-curvature="0" class="st13" d="M280.1,196.1C280.1,196.1,281.9,198,280.1,196.1
		c-1.8-2-5.7-3.3-7.9-2.7c-2.2,0.6,0.4,0.9,1.1,0.9c0.7,0.1,2.2,0.4,4.3,0"/>
	<path id="path594" inkscape:connector-curvature="0" class="st10" d="M259.1,189.3v22.3c-0.2,2.2,2.4,5.3,4.3,6.2
		c0,0,4.4-1.7,4.7-6.2v-23.6h-1.5v20.4c-0.1,2.1-1.3,5.9-2.9,6.5c0,0-3.2-0.6-3.4-6.4v-19.9L259.1,189.3"/>
	<path id="path595" inkscape:connector-curvature="0" class="st12" d="M259.1,189.3v22.3c-0.2,2.2,2.4,5.3,4.3,6.2
		c0,0,4.4-1.7,4.7-6.2v-23.6h-1.5v20.4c-0.1,2.1-1.3,5.9-2.9,6.5c0,0-3.2-0.6-3.4-6.4v-19.9L259.1,189.3"/>
	<path id="path596" inkscape:connector-curvature="0" class="st0" d="M215.2,219.8c1.3,0,2.4-1.2,2.4-2.7c0-1.5-1.1-2.7-2.4-2.7
		s-2.4,1.2-2.4,2.7C212.8,218.6,213.9,219.8,215.2,219.8"/>
	<path id="path597" inkscape:connector-curvature="0" class="st3" d="M215.2,219.8c1.3,0,2.4-1.2,2.4-2.7c0-1.5-1.1-2.7-2.4-2.7
		s-2.4,1.2-2.4,2.7C212.8,218.6,213.9,219.8,215.2,219.8z"/>
	<path id="path598" inkscape:connector-curvature="0" class="st0" d="M213.7,213.7c1.3,0,2.4-1.2,2.4-2.7c0-1.5-1.1-2.7-2.4-2.7
		c-1.3,0-2.4,1.2-2.4,2.7S212.4,213.7,213.7,213.7"/>
	<path id="path599" inkscape:connector-curvature="0" class="st3" d="M213.7,213.7c1.3,0,2.4-1.2,2.4-2.7c0-1.5-1.1-2.7-2.4-2.7
		c-1.3,0-2.4,1.2-2.4,2.7S212.4,213.7,213.7,213.7z"/>
	<path id="path600" inkscape:connector-curvature="0" class="st0" d="M214.5,206.3c1.3,0,2.4-1.2,2.4-2.7c0-1.5-1.1-2.7-2.4-2.7
		c-1.3,0-2.4,1.2-2.4,2.7C212.1,205.1,213.2,206.3,214.5,206.3"/>
	<path id="path601" inkscape:connector-curvature="0" class="st3" d="M214.5,206.3c1.3,0,2.4-1.2,2.4-2.7c0-1.5-1.1-2.7-2.4-2.7
		c-1.3,0-2.4,1.2-2.4,2.7C212.1,205.1,213.2,206.3,214.5,206.3z"/>
	<path id="path602" inkscape:connector-curvature="0" class="st0" d="M218.2,200.1c1.3,0,2.4-1.2,2.4-2.7c0-1.5-1.1-2.7-2.4-2.7
		c-1.3,0-2.4,1.2-2.4,2.7C215.8,198.9,216.9,200.1,218.2,200.1"/>
	<path id="path603" inkscape:connector-curvature="0" class="st3" d="M218.2,200.1c1.3,0,2.4-1.2,2.4-2.7c0-1.5-1.1-2.7-2.4-2.7
		c-1.3,0-2.4,1.2-2.4,2.7C215.8,198.9,216.9,200.1,218.2,200.1z"/>
	<path id="path604" inkscape:connector-curvature="0" class="st0" d="M222.6,195.6c1.3,0,2.4-1.2,2.4-2.7c0-1.5-1.1-2.7-2.4-2.7
		s-2.4,1.2-2.4,2.7C220.2,194.4,221.3,195.6,222.6,195.6"/>
	<path id="path605" inkscape:connector-curvature="0" class="st3" d="M222.6,195.6c1.3,0,2.4-1.2,2.4-2.7c0-1.5-1.1-2.7-2.4-2.7
		s-2.4,1.2-2.4,2.7C220.2,194.4,221.3,195.6,222.6,195.6z"/>
	<path id="path606" inkscape:connector-curvature="0" class="st0" d="M228.2,193.1c1.3,0,2.4-1.2,2.4-2.7c0-1.5-1.1-2.7-2.4-2.7
		s-2.4,1.2-2.4,2.7C225.8,191.9,226.9,193.1,228.2,193.1"/>
	<path id="path607" inkscape:connector-curvature="0" class="st3" d="M228.2,193.1c1.3,0,2.4-1.2,2.4-2.7c0-1.5-1.1-2.7-2.4-2.7
		s-2.4,1.2-2.4,2.7C225.8,191.9,226.9,193.1,228.2,193.1z"/>
	<path id="path608" inkscape:connector-curvature="0" class="st0" d="M234.1,191.9c1.3,0,2.4-1.2,2.4-2.7s-1.1-2.7-2.4-2.7
		c-1.3,0-2.4,1.2-2.4,2.7C231.7,190.7,232.8,191.9,234.1,191.9"/>
	<path id="path609" inkscape:connector-curvature="0" class="st3" d="M234.1,191.9c1.3,0,2.4-1.2,2.4-2.7s-1.1-2.7-2.4-2.7
		c-1.3,0-2.4,1.2-2.4,2.7C231.7,190.7,232.8,191.9,234.1,191.9z"/>
	<path id="path610" inkscape:connector-curvature="0" class="st0" d="M239.7,191.6c1.3,0,2.4-1.2,2.4-2.7c0-1.5-1.1-2.7-2.4-2.7
		c-1.3,0-2.4,1.2-2.4,2.7S238.4,191.6,239.7,191.6"/>
	<path id="path611" inkscape:connector-curvature="0" class="st3" d="M239.7,191.6c1.3,0,2.4-1.2,2.4-2.7c0-1.5-1.1-2.7-2.4-2.7
		c-1.3,0-2.4,1.2-2.4,2.7S238.4,191.6,239.7,191.6z"/>
	<path id="path612" inkscape:connector-curvature="0" class="st0" d="M244.7,192.1c1.3,0,2.4-1.2,2.4-2.7c0-1.5-1.1-2.7-2.4-2.7
		c-1.3,0-2.4,1.2-2.4,2.7C242.3,190.9,243.4,192.1,244.7,192.1"/>
	<path id="path613" inkscape:connector-curvature="0" class="st3" d="M244.7,192.1c1.3,0,2.4-1.2,2.4-2.7c0-1.5-1.1-2.7-2.4-2.7
		c-1.3,0-2.4,1.2-2.4,2.7C242.3,190.9,243.4,192.1,244.7,192.1z"/>
	<path id="path614" inkscape:connector-curvature="0" class="st0" d="M259.1,190c1.3,0,2.4-1.2,2.4-2.7c0-1.5-1.1-2.7-2.4-2.7
		s-2.4,1.2-2.4,2.7C256.7,188.9,257.8,190,259.1,190"/>
	<path id="path615" inkscape:connector-curvature="0" class="st3" d="M259.1,190c1.3,0,2.4-1.2,2.4-2.7c0-1.5-1.1-2.7-2.4-2.7
		s-2.4,1.2-2.4,2.7C256.7,188.9,257.8,190,259.1,190z"/>
	<path id="path616" inkscape:connector-curvature="0" class="st0" d="M263.7,191.4c1.3,0,2.4-1.2,2.4-2.7c0-1.5-1.1-2.7-2.4-2.7
		c-1.3,0-2.4,1.2-2.4,2.7S262.3,191.4,263.7,191.4"/>
	<path id="path617" inkscape:connector-curvature="0" class="st3" d="M263.7,191.4c1.3,0,2.4-1.2,2.4-2.7c0-1.5-1.1-2.7-2.4-2.7
		c-1.3,0-2.4,1.2-2.4,2.7S262.3,191.4,263.7,191.4z"/>
	<path id="path618" inkscape:connector-curvature="0" class="st0" d="M263.7,211.2c1.3,0,2.4-1.2,2.4-2.7c0-1.5-1.1-2.7-2.4-2.7
		c-1.3,0-2.4,1.2-2.4,2.7C261.3,210,262.3,211.2,263.7,211.2"/>
	<path id="path619" inkscape:connector-curvature="0" class="st3" d="M263.7,211.2c1.3,0,2.4-1.2,2.4-2.7c0-1.5-1.1-2.7-2.4-2.7
		c-1.3,0-2.4,1.2-2.4,2.7C261.3,210,262.3,211.2,263.7,211.2z"/>
	<path id="path620" inkscape:connector-curvature="0" class="st0" d="M312.7,221.5c1.3,0,2.4-1.2,2.4-2.7c0-1.5-1.1-2.7-2.4-2.7
		c-1.3,0-2.4,1.2-2.4,2.7C310.4,220.3,311.4,221.5,312.7,221.5"/>
	<path id="path621" inkscape:connector-curvature="0" class="st3" d="M312.7,221.5c1.3,0,2.4-1.2,2.4-2.7c0-1.5-1.1-2.7-2.4-2.7
		c-1.3,0-2.4,1.2-2.4,2.7C310.4,220.3,311.4,221.5,312.7,221.5z"/>
	<path id="path622" inkscape:connector-curvature="0" class="st0" d="M314,214.9c1.3,0,2.4-1.2,2.4-2.7c0-1.5-1.1-2.7-2.4-2.7
		c-1.3,0-2.4,1.2-2.4,2.7S312.7,214.9,314,214.9"/>
	<path id="path623" inkscape:connector-curvature="0" class="st3" d="M314,214.9c1.3,0,2.4-1.2,2.4-2.7c0-1.5-1.1-2.7-2.4-2.7
		c-1.3,0-2.4,1.2-2.4,2.7S312.7,214.9,314,214.9z"/>
	<path id="path624" inkscape:connector-curvature="0" class="st0" d="M313,208c1.3,0,2.4-1.2,2.4-2.7c0-1.5-1.1-2.7-2.4-2.7
		c-1.3,0-2.4,1.2-2.4,2.7C310.6,206.8,311.6,208,313,208"/>
	<path id="path625" inkscape:connector-curvature="0" class="st3" d="M313,208c1.3,0,2.4-1.2,2.4-2.7c0-1.5-1.1-2.7-2.4-2.7
		c-1.3,0-2.4,1.2-2.4,2.7C310.6,206.8,311.6,208,313,208z"/>
	<path id="path626" inkscape:connector-curvature="0" class="st0" d="M310.4,201.5c1.3,0,2.4-1.2,2.4-2.7c0-1.5-1.1-2.7-2.4-2.7
		c-1.3,0-2.4,1.2-2.4,2.7C308,200.3,309.1,201.5,310.4,201.5"/>
	<path id="path627" inkscape:connector-curvature="0" class="st3" d="M310.4,201.5c1.3,0,2.4-1.2,2.4-2.7c0-1.5-1.1-2.7-2.4-2.7
		c-1.3,0-2.4,1.2-2.4,2.7C308,200.3,309.1,201.5,310.4,201.5z"/>
	<path id="path628" inkscape:connector-curvature="0" class="st0" d="M306,196.9c1.3,0,2.4-1.2,2.4-2.7c0-1.5-1.1-2.7-2.4-2.7
		s-2.4,1.2-2.4,2.7C303.6,195.7,304.7,196.9,306,196.9"/>
	<path id="path629" inkscape:connector-curvature="0" class="st3" d="M306,196.9c1.3,0,2.4-1.2,2.4-2.7c0-1.5-1.1-2.7-2.4-2.7
		s-2.4,1.2-2.4,2.7C303.6,195.7,304.7,196.9,306,196.9z"/>
	<path id="path630" inkscape:connector-curvature="0" class="st0" d="M300.8,194c1.3,0,2.4-1.2,2.4-2.7c0-1.5-1.1-2.7-2.4-2.7
		c-1.3,0-2.4,1.2-2.4,2.7S299.4,194,300.8,194"/>
	<path id="path631" inkscape:connector-curvature="0" class="st3" d="M300.8,194c1.3,0,2.4-1.2,2.4-2.7c0-1.5-1.1-2.7-2.4-2.7
		c-1.3,0-2.4,1.2-2.4,2.7S299.4,194,300.8,194z"/>
	<path id="path632" inkscape:connector-curvature="0" class="st0" d="M294.8,192.5c1.3,0,2.4-1.2,2.4-2.7c0-1.5-1.1-2.7-2.4-2.7
		c-1.3,0-2.4,1.2-2.4,2.7C292.4,191.3,293.5,192.5,294.8,192.5"/>
	<path id="path633" inkscape:connector-curvature="0" class="st3" d="M294.8,192.5c1.3,0,2.4-1.2,2.4-2.7c0-1.5-1.1-2.7-2.4-2.7
		c-1.3,0-2.4,1.2-2.4,2.7C292.4,191.3,293.5,192.5,294.8,192.5z"/>
	<path id="path634" inkscape:connector-curvature="0" class="st0" d="M289.3,192c1.3,0,2.4-1.2,2.4-2.7c0-1.5-1.1-2.7-2.4-2.7
		c-1.3,0-2.4,1.2-2.4,2.7C286.9,190.8,288,192,289.3,192"/>
	<path id="path635" inkscape:connector-curvature="0" class="st3" d="M289.3,192c1.3,0,2.4-1.2,2.4-2.7c0-1.5-1.1-2.7-2.4-2.7
		c-1.3,0-2.4,1.2-2.4,2.7C286.9,190.8,288,192,289.3,192z"/>
	<path id="path636" inkscape:connector-curvature="0" class="st0" d="M284.3,191.3c1.3,0,2.4-1.2,2.4-2.7c0-1.5-1.1-2.7-2.4-2.7
		c-1.3,0-2.4,1.2-2.4,2.7C281.9,190.1,283,191.3,284.3,191.3"/>
	<path id="path637" inkscape:connector-curvature="0" class="st3" d="M284.3,191.3c1.3,0,2.4-1.2,2.4-2.7c0-1.5-1.1-2.7-2.4-2.7
		c-1.3,0-2.4,1.2-2.4,2.7C281.9,190.1,283,191.3,284.3,191.3z"/>
	<path id="path638" inkscape:connector-curvature="0" class="st0" d="M287.5,213.1c1.3,0,2.4-1.2,2.4-2.7c0-1.5-1.1-2.7-2.4-2.7
		s-2.4,1.2-2.4,2.7S286.2,213.1,287.5,213.1"/>
	<path id="path639" inkscape:connector-curvature="0" class="st3" d="M287.5,213.1c1.3,0,2.4-1.2,2.4-2.7c0-1.5-1.1-2.7-2.4-2.7
		s-2.4,1.2-2.4,2.7S286.2,213.1,287.5,213.1z"/>
	<path id="path640" inkscape:connector-curvature="0" class="st0" d="M288.8,207.9c1.3,0,2.4-1.2,2.4-2.7c0-1.5-1.1-2.7-2.4-2.7
		c-1.3,0-2.4,1.2-2.4,2.7S287.4,207.9,288.8,207.9"/>
	<path id="path641" inkscape:connector-curvature="0" class="st3" d="M288.8,207.9c1.3,0,2.4-1.2,2.4-2.7c0-1.5-1.1-2.7-2.4-2.7
		c-1.3,0-2.4,1.2-2.4,2.7S287.4,207.9,288.8,207.9z"/>
	<path id="path642" inkscape:connector-curvature="0" class="st0" d="M268.8,190.9c1.3,0,2.4-1.2,2.4-2.7s-1.1-2.7-2.4-2.7
		c-1.3,0-2.4,1.2-2.4,2.7C266.4,189.7,267.5,190.9,268.8,190.9"/>
	<path id="path643" inkscape:connector-curvature="0" class="st3" d="M268.8,190.9c1.3,0,2.4-1.2,2.4-2.7s-1.1-2.7-2.4-2.7
		c-1.3,0-2.4,1.2-2.4,2.7C266.4,189.7,267.5,190.9,268.8,190.9z"/>
	<path id="path644" inkscape:connector-curvature="0" class="st0" d="M257.2,190.1c1.3,0,2.4-1.2,2.4-2.7c0-1.5-1.1-2.7-2.4-2.7
		c-1.3,0-2.4,1.2-2.4,2.7C254.8,188.9,255.9,190.1,257.2,190.1"/>
	<path id="path645" inkscape:connector-curvature="0" class="st3" d="M257.2,190.1c1.3,0,2.4-1.2,2.4-2.7c0-1.5-1.1-2.7-2.4-2.7
		c-1.3,0-2.4,1.2-2.4,2.7C254.8,188.9,255.9,190.1,257.2,190.1z"/>
	<path id="path646" inkscape:connector-curvature="0" class="st0" d="M254.4,190c1.3,0,2.4-1.2,2.4-2.7c0-1.5-1.1-2.7-2.4-2.7
		c-1.3,0-2.4,1.2-2.4,2.7C252,188.8,253.1,190,254.4,190"/>
	<path id="path647" inkscape:connector-curvature="0" class="st3" d="M254.4,190c1.3,0,2.4-1.2,2.4-2.7c0-1.5-1.1-2.7-2.4-2.7
		c-1.3,0-2.4,1.2-2.4,2.7C252,188.8,253.1,190,254.4,190z"/>
	<path id="path648" inkscape:connector-curvature="0" class="st0" d="M239.3,213.1c1.3,0,2.4-1.2,2.4-2.7c0-1.5-1.1-2.7-2.4-2.7
		c-1.3,0-2.4,1.2-2.4,2.7C236.9,212,238,213.1,239.3,213.1"/>
	<path id="path649" inkscape:connector-curvature="0" class="st3" d="M239.3,213.1c1.3,0,2.4-1.2,2.4-2.7c0-1.5-1.1-2.7-2.4-2.7
		c-1.3,0-2.4,1.2-2.4,2.7C236.9,212,238,213.1,239.3,213.1z"/>
	<path id="path650" inkscape:connector-curvature="0" class="st0" d="M238.6,206.8c1.3,0,2.4-1.2,2.4-2.7c0-1.5-1.1-2.7-2.4-2.7
		c-1.3,0-2.4,1.2-2.4,2.7C236.2,205.6,237.3,206.8,238.6,206.8"/>
	<path id="path651" inkscape:connector-curvature="0" class="st3" d="M238.6,206.8c1.3,0,2.4-1.2,2.4-2.7c0-1.5-1.1-2.7-2.4-2.7
		c-1.3,0-2.4,1.2-2.4,2.7C236.2,205.6,237.3,206.8,238.6,206.8z"/>
	<path id="path652" inkscape:connector-curvature="0" class="st0" d="M240.3,200.6c1.3,0,2.4-1.2,2.4-2.7s-1.1-2.7-2.4-2.7
		c-1.3,0-2.4,1.2-2.4,2.7C237.9,199.4,239,200.6,240.3,200.6"/>
	<path id="path653" inkscape:connector-curvature="0" class="st3" d="M240.3,200.6c1.3,0,2.4-1.2,2.4-2.7s-1.1-2.7-2.4-2.7
		c-1.3,0-2.4,1.2-2.4,2.7C237.9,199.4,239,200.6,240.3,200.6z"/>
	<path id="path654" inkscape:connector-curvature="0" class="st0" d="M250.7,190.6c1.3,0,2.4-1.2,2.4-2.7c0-1.5-1.1-2.7-2.4-2.7
		c-1.3,0-2.4,1.2-2.4,2.7C248.4,189.4,249.4,190.6,250.7,190.6"/>
	<path id="path655" inkscape:connector-curvature="0" class="st3" d="M250.7,190.6c1.3,0,2.4-1.2,2.4-2.7c0-1.5-1.1-2.7-2.4-2.7
		c-1.3,0-2.4,1.2-2.4,2.7C248.4,189.4,249.4,190.6,250.7,190.6z"/>
	<path id="path656" inkscape:connector-curvature="0" class="st0" d="M246.8,192.4c1.3,0,2.4-1.2,2.4-2.7c0-1.5-1.1-2.7-2.4-2.7
		c-1.3,0-2.4,1.2-2.4,2.7C244.4,191.2,245.5,192.4,246.8,192.4"/>
	<path id="path657" inkscape:connector-curvature="0" class="st3" d="M246.8,192.4c1.3,0,2.4-1.2,2.4-2.7c0-1.5-1.1-2.7-2.4-2.7
		c-1.3,0-2.4,1.2-2.4,2.7C244.4,191.2,245.5,192.4,246.8,192.4z"/>
	<path id="path658" inkscape:connector-curvature="0" class="st0" d="M243,196c1.3,0,2.4-1.2,2.4-2.7c0-1.5-1.1-2.7-2.4-2.7
		c-1.3,0-2.4,1.2-2.4,2.7C240.6,194.8,241.7,196,243,196"/>
	<path id="path659" inkscape:connector-curvature="0" class="st3" d="M243,196c1.3,0,2.4-1.2,2.4-2.7c0-1.5-1.1-2.7-2.4-2.7
		c-1.3,0-2.4,1.2-2.4,2.7C240.6,194.8,241.7,196,243,196z"/>
	<path id="path660" inkscape:connector-curvature="0" class="st0" d="M263.7,194.4c1.3,0,2.4-1.2,2.4-2.7c0-1.5-1.1-2.7-2.4-2.7
		c-1.3,0-2.4,1.2-2.4,2.7C261.3,193.3,262.3,194.4,263.7,194.4"/>
	<path id="path661" inkscape:connector-curvature="0" class="st3" d="M263.7,194.4c1.3,0,2.4-1.2,2.4-2.7c0-1.5-1.1-2.7-2.4-2.7
		c-1.3,0-2.4,1.2-2.4,2.7C261.3,193.3,262.3,194.4,263.7,194.4z"/>
	<path id="path662" inkscape:connector-curvature="0" class="st0" d="M263.7,199.5c1.3,0,2.4-1.2,2.4-2.7s-1.1-2.7-2.4-2.7
		c-1.3,0-2.4,1.2-2.4,2.7C261.3,198.3,262.3,199.5,263.7,199.5"/>
	<path id="path663" inkscape:connector-curvature="0" class="st3" d="M263.7,199.5c1.3,0,2.4-1.2,2.4-2.7s-1.1-2.7-2.4-2.7
		c-1.3,0-2.4,1.2-2.4,2.7C261.3,198.3,262.3,199.5,263.7,199.5z"/>
	<path id="path664" inkscape:connector-curvature="0" class="st0" d="M263.7,204.9c1.3,0,2.4-1.2,2.4-2.7c0-1.5-1.1-2.7-2.4-2.7
		c-1.3,0-2.4,1.2-2.4,2.7C261.3,203.7,262.3,204.9,263.7,204.9"/>
	<path id="path665" inkscape:connector-curvature="0" class="st3" d="M263.7,204.9c1.3,0,2.4-1.2,2.4-2.7c0-1.5-1.1-2.7-2.4-2.7
		c-1.3,0-2.4,1.2-2.4,2.7C261.3,203.7,262.3,204.9,263.7,204.9z"/>
	<path id="path666" inkscape:connector-curvature="0" class="st0" d="M271.9,190.2c1.3,0,2.4-1.2,2.4-2.7c0-1.5-1.1-2.7-2.4-2.7
		c-1.3,0-2.4,1.2-2.4,2.7C269.5,189,270.6,190.2,271.9,190.2"/>
	<path id="path667" inkscape:connector-curvature="0" class="st3" d="M271.9,190.2c1.3,0,2.4-1.2,2.4-2.7c0-1.5-1.1-2.7-2.4-2.7
		c-1.3,0-2.4,1.2-2.4,2.7C269.5,189,270.6,190.2,271.9,190.2z"/>
	<path id="path668" inkscape:connector-curvature="0" class="st0" d="M275.1,189.4c1.3,0,2.4-1.2,2.4-2.7c0-1.5-1.1-2.7-2.4-2.7
		c-1.3,0-2.4,1.2-2.4,2.7S273.8,189.4,275.1,189.4"/>
	<path id="path669" inkscape:connector-curvature="0" class="st3" d="M275.1,189.4c1.3,0,2.4-1.2,2.4-2.7c0-1.5-1.1-2.7-2.4-2.7
		c-1.3,0-2.4,1.2-2.4,2.7S273.8,189.4,275.1,189.4z"/>
	<path id="path670" inkscape:connector-curvature="0" class="st0" d="M278.8,190.1c1.3,0,2.4-1.2,2.4-2.7s-1.1-2.7-2.4-2.7
		s-2.4,1.2-2.4,2.7S277.5,190.1,278.8,190.1"/>
	<path id="path671" inkscape:connector-curvature="0" class="st3" d="M278.8,190.1c1.3,0,2.4-1.2,2.4-2.7s-1.1-2.7-2.4-2.7
		s-2.4,1.2-2.4,2.7S277.5,190.1,278.8,190.1z"/>
	<path id="path672" inkscape:connector-curvature="0" class="st0" d="M288,201.4c1.3,0,2.4-1.2,2.4-2.7c0-1.5-1.1-2.7-2.4-2.7
		c-1.3,0-2.4,1.2-2.4,2.7S286.7,201.4,288,201.4"/>
	<path id="path673" inkscape:connector-curvature="0" class="st3" d="M288,201.4c1.3,0,2.4-1.2,2.4-2.7c0-1.5-1.1-2.7-2.4-2.7
		c-1.3,0-2.4,1.2-2.4,2.7S286.7,201.4,288,201.4z"/>
	<path id="path674" inkscape:connector-curvature="0" class="st0" d="M282.5,192.5c1.3,0,2.4-1.2,2.4-2.7c0-1.5-1.1-2.7-2.4-2.7
		c-1.3,0-2.4,1.2-2.4,2.7C280.1,191.3,281.2,192.5,282.5,192.5"/>
	<path id="path675" inkscape:connector-curvature="0" class="st3" d="M282.5,192.5c1.3,0,2.4-1.2,2.4-2.7c0-1.5-1.1-2.7-2.4-2.7
		c-1.3,0-2.4,1.2-2.4,2.7C280.1,191.3,281.2,192.5,282.5,192.5z"/>
	<path id="path676" inkscape:connector-curvature="0" class="st0" d="M285.8,196.1c1.3,0,2.4-1.2,2.4-2.7c0-1.5-1.1-2.7-2.4-2.7
		c-1.3,0-2.4,1.2-2.4,2.7C283.5,194.9,284.5,196.1,285.8,196.1"/>
	<path id="path677" inkscape:connector-curvature="0" class="st3" d="M285.8,196.1c1.3,0,2.4-1.2,2.4-2.7c0-1.5-1.1-2.7-2.4-2.7
		c-1.3,0-2.4,1.2-2.4,2.7C283.5,194.9,284.5,196.1,285.8,196.1z"/>
	<path id="path678" inkscape:connector-curvature="0" class="st0" d="M263.5,236l-6.3,3.5l5.6,4l6.7-3.8L263.5,236"/>
	<path id="path679" inkscape:connector-curvature="0" class="st14" d="M263.5,236l-6.3,3.5l5.6,4l6.7-3.8L263.5,236"/>
	<path id="path680" inkscape:connector-curvature="0" class="st0" d="M249.8,236.8l-9.4,1.6c0,0-0.1,5.7,0.3,7l9.6-1.5
		C250.4,244,250.8,238.7,249.8,236.8"/>
	<path id="path681" inkscape:connector-curvature="0" class="st14" d="M249.8,236.8l-9.4,1.6c0,0-0.1,5.7,0.3,7l9.6-1.5
		C250.4,244,250.8,238.7,249.8,236.8L249.8,236.8z"/>
	<path id="path682" inkscape:connector-curvature="0" class="st15" d="M248.8,238.8c0,0-5.7,0.6-7.1,1.2l0.1,3.9
		c0,0,3.7-0.8,7.2-1.1L248.8,238.8"/>
	<path id="path683" inkscape:connector-curvature="0" class="st14" d="M248.8,238.8c0,0-5.7,0.6-7.1,1.2l0.1,3.9
		c0,0,3.7-0.8,7.2-1.1L248.8,238.8"/>
	<path id="path684" inkscape:connector-curvature="0" class="st0" d="M276.6,237.1l9.4,1.6c0,0,0.1,5.7-0.3,7l-9.6-1.5
		C276.1,244.3,275.6,239,276.6,237.1"/>
	<path id="path685" inkscape:connector-curvature="0" class="st14" d="M276.6,237.1l9.4,1.6c0,0,0.1,5.7-0.3,7l-9.6-1.5
		C276.1,244.3,275.6,239,276.6,237.1L276.6,237.1z"/>
	<path id="path686" inkscape:connector-curvature="0" class="st15" d="M277.7,239.1c0,0,5.7,0.6,7.1,1.2l-0.1,3.9
		c0,0-3.7-0.8-7.2-1.1L277.7,239.1"/>
	<path id="path687" inkscape:connector-curvature="0" class="st14" d="M277.7,239.1c0,0,5.7,0.6,7.1,1.2l-0.1,3.9
		c0,0-3.7-0.8-7.2-1.1L277.7,239.1"/>
	<path id="path688" inkscape:connector-curvature="0" class="st14" d="M226.3,241.8c0,0,33-13.8,74.9,1.2 M227.6,249.7
		c0,0,31.9-13.4,71.2,0.6 M227.8,241.3l6.4,2.1l-4.5,5.4"/>
	<path id="path689" inkscape:connector-curvature="0" class="st16" d="M227.9,247.8l3.7-3.4l-4.2-0.9c0,0,0.6,0.7,0.5,1.4
		C227.8,245.5,227.9,247.2,227.9,247.8"/>
	<path id="path690" inkscape:connector-curvature="0" class="st14" d="M227.9,247.8l3.7-3.4l-4.2-0.9c0,0,0.6,0.7,0.5,1.4
		C227.8,245.5,227.9,247.2,227.9,247.8L227.9,247.8z"/>
	<path id="path691" inkscape:connector-curvature="0" class="st14" d="M300.5,242.7l-6.8,1.4l4.6,6"/>
	<path id="path692" inkscape:connector-curvature="0" class="st16" d="M298.5,248l-2.6-3l3.7-0.4c0,0-1,0.8-1,1.4
		C298.6,246.6,298.7,247.5,298.5,248"/>
	<path id="path693" inkscape:connector-curvature="0" class="st14" d="M298.5,248l-2.6-3l3.7-0.4c0,0-1,0.8-1,1.4
		C298.6,246.6,298.7,247.5,298.5,248z"/>
	<path id="path694" inkscape:connector-curvature="0" class="st14" d="M236.2,241.8c0.6,0,1.1-0.4,1.1-1c0-0.5-0.5-0.9-1.1-0.9
		c-0.6,0-1.1,0.4-1.1,0.9C235.1,241.4,235.6,241.8,236.2,241.8z M254.5,239.5c0.6,0,1.1-0.4,1.1-0.9c0-0.5-0.5-0.9-1.1-0.9
		c-0.6,0-1.1,0.4-1.1,0.9C253.4,239.1,253.9,239.5,254.5,239.5z M254.5,242.8c0.6,0,1.1-0.4,1.1-0.9c0-0.5-0.5-0.9-1.1-0.9
		c-0.6,0-1.1,0.4-1.1,0.9S253.9,242.8,254.5,242.8z M272.6,239.7c0.6,0,1.1-0.4,1.1-0.9c0-0.5-0.5-0.9-1.1-0.9
		c-0.6,0-1.1,0.4-1.1,0.9C271.5,239.2,272,239.7,272.6,239.7z M290.5,243.4c0.6,0,1.1-0.4,1.1-1c0-0.5-0.5-0.9-1.1-0.9
		c-0.6,0-1.1,0.4-1.1,0.9C289.4,242.9,289.9,243.4,290.5,243.4z M290.2,246c0.6,0,1.1-0.4,1.1-0.9s-0.5-1-1.1-1s-1.1,0.4-1.1,1
		C289.1,245.6,289.6,246,290.2,246z M272.6,243c0.6,0,1.1-0.4,1.1-0.9c0-0.5-0.5-0.9-1.1-0.9c-0.6,0-1.1,0.4-1.1,0.9
		C271.5,242.6,272,243,272.6,243z M237,246c0.6,0,1.1-0.4,1.1-0.9s-0.5-1-1.1-1c-0.6,0-1.1,0.4-1.1,1C236,245.6,236.5,246,237,246z"
		/>
	<path id="path695" inkscape:connector-curvature="0" class="st10" d="M225.7,231c0,0,0.1,7.2,4.3,6.2c4.2-1,3.7-6.9,4-7.2
		c0.3-0.3,0.7-0.3,0.7-0.3s0.6,5.7,4.5,5c3.9-0.7,3.7-7.7,3.3-8.9l0.9-0.3c0,0,1.5,8.2,6,7c4.5-1.2,4-6.4,4-6.4h0.3
		c0,0,1,5.5,4.6,5.2c3.6-0.3,4.3-1.7,3.9-7.2l2.4-0.5c0,0-0.9,8,3.4,7.9c4.3-0.2,4.5-4,4.8-4.7h0.7c0,0,0.2,5.7,3.8,5.7
		s4.3-4.9,4.3-6.7l3.5,0.2c0,0-3.6,7.5,1.7,8.5c5.4,1,5.5-4.9,5.5-4.9h1c0,0-0.1,7.5,2.8,7.7c3,0.2,4.8-1,5.1-6.5l1.6,0.7
		c0,0-1.4,8.9-7,7.4c-3-0.8-3.9-4.7-3.7-5.7c0,0-2.1,4.2-6.1,2.8c-4-1.3-3.6-4.5-3.6-5.5c0,0-2.4,5-5.8,3.9c-3-1-4.2-2.2-4.2-4.5
		c0,0-1.5,3.9-4.5,3.7c-3-0.2-4.5-2.2-4.6-4c0,0-0.6,3.6-4.6,3.9c-2.7,0.2-4.2-1.3-4.8-3.4c0,0-0.8,3.7-4.6,4.2
		c-2.4,0.3-4.8-1.2-5.4-3.7c0,0-0.6,4.9-4.5,5.5c-3.9,0.7-4.8-2.3-4.8-2.3s-0.7,3.9-3.9,4.7c-3.1,0.8-5.2-0.7-6-4.2
		c-0.7-3.5-0.4-5-0.4-5L225.7,231"/>
	<path id="path696" inkscape:connector-curvature="0" class="st12" d="M225.7,231c0,0,0.1,7.2,4.3,6.2c4.2-1,3.7-6.9,4-7.2
		c0.3-0.3,0.7-0.3,0.7-0.3s0.6,5.7,4.5,5c3.9-0.7,3.7-7.7,3.3-8.9l0.9-0.3c0,0,1.5,8.2,6,7c4.5-1.2,4-6.4,4-6.4h0.3
		c0,0,1,5.5,4.6,5.2c3.6-0.3,4.3-1.7,3.9-7.2l2.4-0.5c0,0-0.9,8,3.4,7.9c4.3-0.2,4.5-4,4.8-4.7h0.7c0,0,0.2,5.7,3.8,5.7
		s4.3-4.9,4.3-6.7l3.5,0.2c0,0-3.6,7.5,1.7,8.5c5.4,1,5.5-4.9,5.5-4.9h1c0,0-0.1,7.5,2.8,7.7c3,0.2,4.8-1,5.1-6.5l1.6,0.7
		c0,0-1.4,8.9-7,7.4c-3-0.8-3.9-4.7-3.7-5.7c0,0-2.1,4.2-6.1,2.8c-4-1.3-3.6-4.5-3.6-5.5c0,0-2.4,5-5.8,3.9c-3-1-4.2-2.2-4.2-4.5
		c0,0-1.5,3.9-4.5,3.7c-3-0.2-4.5-2.2-4.6-4c0,0-0.6,3.6-4.6,3.9c-2.7,0.2-4.2-1.3-4.8-3.4c0,0-0.8,3.7-4.6,4.2
		c-2.4,0.3-4.8-1.2-5.4-3.7c0,0-0.6,4.9-4.5,5.5c-3.9,0.7-4.8-2.3-4.8-2.3s-0.7,3.9-3.9,4.7c-3.1,0.8-5.2-0.7-6-4.2
		c-0.7-3.5-0.4-5-0.4-5L225.7,231L225.7,231z"/>
	<path id="path697" inkscape:connector-curvature="0" class="st10" d="M234.4,231.3c0.8,0,1.5-0.7,1.5-1.7c0-0.9-0.7-1.7-1.5-1.7
		c-0.8,0-1.5,0.7-1.5,1.7C232.9,230.6,233.5,231.3,234.4,231.3"/>
	<path id="path698" inkscape:connector-curvature="0" class="st12" d="M234.4,231.3c0.8,0,1.5-0.7,1.5-1.7c0-0.9-0.7-1.7-1.5-1.7
		c-0.8,0-1.5,0.7-1.5,1.7C232.9,230.6,233.5,231.3,234.4,231.3z"/>
	<path id="path699" inkscape:connector-curvature="0" class="st10" d="M253.8,227.8c0.8,0,1.5-0.7,1.5-1.7c0-0.9-0.7-1.7-1.5-1.7
		s-1.5,0.7-1.5,1.7C252.3,227.1,253,227.8,253.8,227.8"/>
	<path id="path700" inkscape:connector-curvature="0" class="st12" d="M253.8,227.8c0.8,0,1.5-0.7,1.5-1.7c0-0.9-0.7-1.7-1.5-1.7
		s-1.5,0.7-1.5,1.7C252.3,227.1,253,227.8,253.8,227.8z"/>
	<path id="path701" inkscape:connector-curvature="0" class="st10" d="M273.5,228.5c0.8,0,1.5-0.7,1.5-1.7c0-0.9-0.7-1.7-1.5-1.7
		c-0.8,0-1.5,0.7-1.5,1.7C272,227.7,272.7,228.5,273.5,228.5"/>
	<path id="path702" inkscape:connector-curvature="0" class="st12" d="M273.5,228.5c0.8,0,1.5-0.7,1.5-1.7c0-0.9-0.7-1.7-1.5-1.7
		c-0.8,0-1.5,0.7-1.5,1.7C272,227.7,272.7,228.5,273.5,228.5z"/>
	<path id="path703" inkscape:connector-curvature="0" class="st10" d="M293.1,232c0.8,0,1.5-0.7,1.5-1.7c0-0.9-0.7-1.7-1.5-1.7
		c-0.8,0-1.5,0.7-1.5,1.7C291.6,231.3,292.3,232,293.1,232"/>
	<path id="path704" inkscape:connector-curvature="0" class="st12" d="M293.1,232c0.8,0,1.5-0.7,1.5-1.7c0-0.9-0.7-1.7-1.5-1.7
		c-0.8,0-1.5,0.7-1.5,1.7C291.6,231.3,292.3,232,293.1,232z"/>
	<path id="path705" inkscape:connector-curvature="0" class="st10" d="M262.8,226h-1.3c-0.3,1.5-3.2,2.5-3.2,2.5
		c-0.3-1.2,0.4-2.9,0.4-2.9c-3.3-0.9-3.3-2.3-3.3-2.3c0.5-1.3,3.5-1.4,3.5-1.4c-0.8-1.1-0.6-3-0.6-3c2,0.1,3.7,2.4,3.7,2.4
		s-2-1.1-1.8-5.2c0,0,1.1-0.1,1.8,0.8c0,0,0-4.3,1.6-4.8h0.2c1.6,0.5,1.6,4.8,1.6,4.8c0.7-0.8,1.8-0.8,1.8-0.8
		c0.2,4-1.8,5.2-1.8,5.2s1.7-2.3,3.7-2.4c0,0,0.2,1.8-0.6,3c0,0,3,0.2,3.5,1.4c0,0,0,1.3-3.3,2.3c0,0,0.7,1.7,0.4,2.9
		c0,0-2.9-0.9-3.2-2.5H262.8"/>
	<path id="path706" inkscape:connector-curvature="0" class="st12" d="M262.8,226h-1.3c-0.3,1.5-3.2,2.5-3.2,2.5
		c-0.3-1.2,0.4-2.9,0.4-2.9c-3.3-0.9-3.3-2.3-3.3-2.3c0.5-1.3,3.5-1.4,3.5-1.4c-0.8-1.1-0.6-3-0.6-3c2,0.1,3.7,2.4,3.7,2.4
		s-2-1.1-1.8-5.2c0,0,1.1-0.1,1.8,0.8c0,0,0-4.3,1.6-4.8h0.2c1.6,0.5,1.6,4.8,1.6,4.8c0.7-0.8,1.8-0.8,1.8-0.8
		c0.2,4-1.8,5.2-1.8,5.2s1.7-2.3,3.7-2.4c0,0,0.2,1.8-0.6,3c0,0,3,0.2,3.5,1.4c0,0,0,1.3-3.3,2.3c0,0,0.7,1.7,0.4,2.9
		c0,0-2.9-0.9-3.2-2.5H262.8L262.8,226z"/>
	<path id="path707" inkscape:connector-curvature="0" class="st0" d="M263.6,226.8c1.5,0,2.7-1.4,2.7-3c0-1.7-1.2-3-2.7-3
		c-1.5,0-2.7,1.4-2.7,3C260.8,225.5,262.1,226.8,263.6,226.8"/>
	<path id="path708" inkscape:connector-curvature="0" class="st17" d="M263.6,226.8c1.5,0,2.7-1.4,2.7-3c0-1.7-1.2-3-2.7-3
		c-1.5,0-2.7,1.4-2.7,3C260.8,225.5,262.1,226.8,263.6,226.8z"/>
	<path id="path709" inkscape:connector-curvature="0" class="st0" d="M263.6,225.5c0.8,0,1.5-0.7,1.5-1.7c0-0.9-0.7-1.7-1.5-1.7
		c-0.8,0-1.5,0.7-1.5,1.7C262.1,224.7,262.7,225.5,263.6,225.5"/>
	<path id="path710" inkscape:connector-curvature="0" class="st8" d="M263.6,225.5c0.8,0,1.5-0.7,1.5-1.7c0-0.9-0.7-1.7-1.5-1.7
		c-0.8,0-1.5,0.7-1.5,1.7C262.1,224.7,262.7,225.5,263.6,225.5z"/>
	<path id="path711" inkscape:connector-curvature="0" class="st10" d="M284.1,227.9l1.3,0.3c0,1.6,2.7,3.2,2.7,3.2
		c0.5-1.1,0.2-2.9,0.2-2.9c3.4-0.1,3.6-1.4,3.6-1.4c-0.3-1.3-3.2-2.3-3.2-2.3c1-0.9,1.2-2.7,1.2-2.7c-2-0.4-4.1,1.5-4.1,1.5
		s2.2-0.6,2.7-4.6c0,0-1.1-0.3-1.9,0.3c0,0,0.8-4.2-0.7-5.1l-0.2,0c-1.7,0.1-2.5,4.3-2.5,4.3c-0.5-1-1.6-1.2-1.6-1.2
		c-1,3.9,0.8,5.5,0.8,5.5s-1.2-2.6-3.2-3.2c0,0-0.5,1.7,0,3c0,0-3-0.5-3.7,0.6c0,0-0.2,1.3,2.8,3c0,0-1,1.5-0.9,2.7
		c0,0,3-0.2,3.6-1.6l1.3,0.3L284.1,227.9"/>
	<path id="path712" inkscape:connector-curvature="0" class="st12" d="M284.1,227.9l1.3,0.3c0,1.6,2.7,3.2,2.7,3.2
		c0.5-1.1,0.2-2.9,0.2-2.9c3.4-0.1,3.6-1.4,3.6-1.4c-0.3-1.3-3.2-2.3-3.2-2.3c1-0.9,1.2-2.7,1.2-2.7c-2-0.4-4.1,1.5-4.1,1.5
		s2.2-0.6,2.7-4.6c0,0-1.1-0.3-1.9,0.3c0,0,0.8-4.2-0.7-5.1l-0.2,0c-1.7,0.1-2.5,4.3-2.5,4.3c-0.5-1-1.6-1.2-1.6-1.2
		c-1,3.9,0.8,5.5,0.8,5.5s-1.2-2.6-3.2-3.2c0,0-0.5,1.7,0,3c0,0-3-0.5-3.7,0.6c0,0-0.2,1.3,2.8,3c0,0-1,1.5-0.9,2.7
		c0,0,3-0.2,3.6-1.6l1.3,0.3L284.1,227.9"/>
	<path id="path713" inkscape:connector-curvature="0" class="st0" d="M283.1,228.6c-1.5-0.4-2.4-2-2.1-3.6c0.3-1.6,1.8-2.7,3.2-2.3
		c1.5,0.4,2.4,2,2.1,3.6C286,227.9,284.6,229,283.1,228.6"/>
	<path id="path714" inkscape:connector-curvature="0" class="st17" d="M283.1,228.6c-1.5-0.4-2.4-2-2.1-3.6c0.3-1.6,1.8-2.7,3.2-2.3
		c1.5,0.4,2.4,2,2.1,3.6C286,227.9,284.6,229,283.1,228.6L283.1,228.6z"/>
	<path id="path715" inkscape:connector-curvature="0" class="st0" d="M283.4,227.3c-0.8-0.2-1.3-1.1-1.1-2c0.2-0.9,1-1.5,1.8-1.3
		c0.8,0.2,1.3,1.1,1.1,2C285,226.9,284.2,227.4,283.4,227.3"/>
	<path id="path716" inkscape:connector-curvature="0" class="st8" d="M283.4,227.3c-0.8-0.2-1.3-1.1-1.1-2c0.2-0.9,1-1.5,1.8-1.3
		c0.8,0.2,1.3,1.1,1.1,2C285,226.9,284.2,227.4,283.4,227.3z"/>
	<path id="path717" inkscape:connector-curvature="0" class="st10" d="M242.4,227.6l-1.3,0.2c-0.2,1.5-2.9,2.9-2.9,2.9
		c-0.5-1.1,0-2.9,0-2.9c-3.4-0.4-3.5-1.8-3.5-1.8c0.4-1.3,3.3-2,3.3-2c-0.9-1-1-2.8-1-2.8c2-0.2,3.9,1.8,3.9,1.8s-2.1-0.8-2.4-4.8
		c0,0,1.1-0.2,1.9,0.5c0,0-0.5-4.3,1-5l0.2,0c1.7,0.3,2.2,4.6,2.2,4.6c0.6-0.9,1.7-1,1.7-1c0.7,4-1.2,5.4-1.2,5.4s1.4-2.5,3.4-2.9
		c0,0,0.4,1.8-0.3,3c0,0,3-0.3,3.7,0.9c0,0,0.2,1.3-3,2.7c0,0,0.9,1.6,0.7,2.8c0,0-2.9-0.5-3.5-2l-1.3,0.2L242.4,227.6"/>
	<path id="path718" inkscape:connector-curvature="0" class="st12" d="M242.4,227.6l-1.3,0.2c-0.2,1.5-2.9,2.9-2.9,2.9
		c-0.5-1.1,0-2.9,0-2.9c-3.4-0.4-3.5-1.8-3.5-1.8c0.4-1.3,3.3-2,3.3-2c-0.9-1-1-2.8-1-2.8c2-0.2,3.9,1.8,3.9,1.8s-2.1-0.8-2.4-4.8
		c0,0,1.1-0.2,1.9,0.5c0,0-0.5-4.3,1-5l0.2,0c1.7,0.3,2.2,4.6,2.2,4.6c0.6-0.9,1.7-1,1.7-1c0.7,4-1.2,5.4-1.2,5.4s1.4-2.5,3.4-2.9
		c0,0,0.4,1.8-0.3,3c0,0,3-0.3,3.7,0.9c0,0,0.2,1.3-3,2.7c0,0,0.9,1.6,0.7,2.8c0,0-2.9-0.5-3.5-2l-1.3,0.2L242.4,227.6"/>
	<path id="path719" inkscape:connector-curvature="0" class="st0" d="M243.2,228.4c1.5-0.2,2.5-1.7,2.3-3.4c-0.2-1.7-1.6-2.8-3-2.6
		c-1.5,0.2-2.5,1.7-2.3,3.4C240.4,227.4,241.7,228.6,243.2,228.4"/>
	<path id="path720" inkscape:connector-curvature="0" class="st17" d="M243.2,228.4c1.5-0.2,2.5-1.7,2.3-3.4c-0.2-1.7-1.6-2.8-3-2.6
		c-1.5,0.2-2.5,1.7-2.3,3.4C240.4,227.4,241.7,228.6,243.2,228.4z"/>
	<path id="path721" inkscape:connector-curvature="0" class="st0" d="M243.1,227c0.8-0.1,1.4-1,1.3-1.9c-0.1-0.9-0.8-1.5-1.7-1.4
		c-0.8,0.1-1.4,1-1.3,1.9C241.5,226.5,242.2,227.1,243.1,227"/>
	<path id="path722" inkscape:connector-curvature="0" class="st8" d="M243.1,227c0.8-0.1,1.4-1,1.3-1.9c-0.1-0.9-0.8-1.5-1.7-1.4
		c-0.8,0.1-1.4,1-1.3,1.9C241.5,226.5,242.2,227.1,243.1,227L243.1,227z"/>
	<path id="path723" inkscape:connector-curvature="0" class="st10" d="M302.8,234.1c0,0-0.7-2-2.2-1.3c-1.5,0.7-1.3,1-2.7,0.9
		c0,0-0.5-1.8,0.1-2.6c0,0-2.1-0.9-2.6-3c0,0,1.1-1.5,3.9-0.9c0,0-0.1-1.5,0.3-2.2c0,0,2.9,1,2.9,2.8c0,0-0.9-3.6,0.7-6.2
		c0,0,1.4,0.7,1.3,2.3c0,0,0.6-3.4,4.7-2.5c0,0-2.2,2.2-2.3,3.2s-1.9,2.7-2,3.3c0,0.6-0.3,1.6-0.8,2.1s-0.6,1.6-0.5,1.9
		C303.6,232.3,303.5,233.7,302.8,234.1"/>
	<path id="path724" inkscape:connector-curvature="0" class="st12" d="M302.8,234.1c0,0-0.7-2-2.2-1.3c-1.5,0.7-1.3,1-2.7,0.9
		c0,0-0.5-1.8,0.1-2.6c0,0-2.1-0.9-2.6-3c0,0,1.1-1.5,3.9-0.9c0,0-0.1-1.5,0.3-2.2c0,0,2.9,1,2.9,2.8c0,0-0.9-3.6,0.7-6.2
		c0,0,1.4,0.7,1.3,2.3c0,0,0.6-3.4,4.7-2.5c0,0-2.2,2.2-2.3,3.2s-1.9,2.7-2,3.3c0,0.6-0.3,1.6-0.8,2.1s-0.6,1.6-0.5,1.9
		C303.6,232.3,303.5,233.7,302.8,234.1L302.8,234.1z"/>
	<path id="path725" inkscape:connector-curvature="0" class="st0" d="M300.6,230.1c0.3-1.6,1.7-2.7,3.2-2.4c0.4,0.1,0.8,0.3,1.1,0.6
		c-0.1,0.6-0.3,1.3-0.8,1.8c-0.5,0.6-0.6,1.6-0.5,1.9c0,0.2,0,1.1-0.4,1.7c-0.1,0-0.3,0-0.4-0.1
		C301.3,233.4,300.3,231.8,300.6,230.1"/>
	<path id="path726" inkscape:connector-curvature="0" class="st17" d="M300.6,230.1c0.3-1.6,1.7-2.7,3.2-2.4
		c0.4,0.1,0.8,0.3,1.1,0.6c-0.1,0.6-0.3,1.3-0.8,1.8c-0.5,0.6-0.6,1.6-0.5,1.9c0,0.2,0,1.1-0.4,1.7c-0.1,0-0.3,0-0.4-0.1
		C301.3,233.4,300.3,231.8,300.6,230.1L300.6,230.1z"/>
	<path id="path727" inkscape:connector-curvature="0" class="st0" d="M301.8,230.4c0.2-0.9,0.9-1.5,1.7-1.3c0.4,0.1,0.7,0.3,0.9,0.6
		c-0.1,0.1-0.2,0.3-0.3,0.4c-0.5,0.6-0.6,1.6-0.5,1.9c0,0.1,0,0.2,0,0.3c-0.2,0-0.4,0.1-0.6,0C302.2,232.2,301.7,231.3,301.8,230.4"
		/>
	<path id="path728" inkscape:connector-curvature="0" class="st8" d="M301.8,230.4c0.2-0.9,0.9-1.5,1.7-1.3c0.4,0.1,0.7,0.3,0.9,0.6
		c-0.1,0.1-0.2,0.3-0.3,0.4c-0.5,0.6-0.6,1.6-0.5,1.9c0,0.1,0,0.2,0,0.3c-0.2,0-0.4,0.1-0.6,0C302.2,232.2,301.7,231.3,301.8,230.4
		L301.8,230.4z"/>
	<path id="path729" inkscape:connector-curvature="0" class="st10" d="M224.5,233.3c0,0,0.8-1.9,2.2-1.1c1.5,0.8,1.3,1.1,2.6,1.1
		c0,0,0.6-1.8,0-2.6c0,0,2.2-0.8,2.7-2.8c0,0-1.1-1.6-3.8-1.2c0,0,0.2-1.5-0.2-2.2c0,0-3,0.8-3.1,2.6c0,0,1.1-3.5-0.3-6.2
		c0,0-1.4,0.6-1.4,2.2c0,0-0.4-3.4-4.5-2.8c0,0,2.1,2.3,2.1,3.3c0.1,1,1.8,2.8,1.8,3.4c0,0.6,0.2,1.6,0.7,2.2
		c0.5,0.6,0.5,1.6,0.4,1.9C223.7,231.4,223.8,232.8,224.5,233.3"/>
	<path id="path730" inkscape:connector-curvature="0" class="st12" d="M224.5,233.3c0,0,0.8-1.9,2.2-1.1c1.5,0.8,1.3,1.1,2.6,1.1
		c0,0,0.6-1.8,0-2.6c0,0,2.2-0.8,2.7-2.8c0,0-1.1-1.6-3.8-1.2c0,0,0.2-1.5-0.2-2.2c0,0-3,0.8-3.1,2.6c0,0,1.1-3.5-0.3-6.2
		c0,0-1.4,0.6-1.4,2.2c0,0-0.4-3.4-4.5-2.8c0,0,2.1,2.3,2.1,3.3c0.1,1,1.8,2.8,1.8,3.4c0,0.6,0.2,1.6,0.7,2.2
		c0.5,0.6,0.5,1.6,0.4,1.9C223.7,231.4,223.8,232.8,224.5,233.3L224.5,233.3z"/>
	<path id="path731" inkscape:connector-curvature="0" class="st0" d="M226.9,229.4c-0.2-1.7-1.6-2.8-3-2.6c-0.4,0.1-0.8,0.2-1.1,0.5
		c0.1,0.6,0.2,1.4,0.7,1.9c0.5,0.6,0.5,1.6,0.4,1.9c0,0.2,0,1.1,0.3,1.7c0.1,0,0.3,0,0.4,0C226,232.6,227,231.1,226.9,229.4"/>
	<path id="path732" inkscape:connector-curvature="0" class="st17" d="M226.9,229.4c-0.2-1.7-1.6-2.8-3-2.6
		c-0.4,0.1-0.8,0.2-1.1,0.5c0.1,0.6,0.2,1.4,0.7,1.9c0.5,0.6,0.5,1.6,0.4,1.9c0,0.2,0,1.1,0.3,1.7c0.1,0,0.3,0,0.4,0
		C226,232.6,227,231.1,226.9,229.4L226.9,229.4z"/>
	<path id="path733" inkscape:connector-curvature="0" class="st0" d="M225.6,229.6c-0.1-0.9-0.9-1.5-1.7-1.4
		c-0.4,0.1-0.7,0.3-0.9,0.6c0.1,0.2,0.2,0.3,0.3,0.4c0.5,0.6,0.5,1.6,0.4,1.9c0,0.1,0,0.2,0,0.3c0.2,0.1,0.4,0.1,0.6,0.1
		C225.2,231.4,225.7,230.5,225.6,229.6"/>
	<path id="path734" inkscape:connector-curvature="0" class="st8" d="M225.6,229.6c-0.1-0.9-0.9-1.5-1.7-1.4
		c-0.4,0.1-0.7,0.3-0.9,0.6c0.1,0.2,0.2,0.3,0.3,0.4c0.5,0.6,0.5,1.6,0.4,1.9c0,0.1,0,0.2,0,0.3c0.2,0.1,0.4,0.1,0.6,0.1
		C225.2,231.4,225.7,230.5,225.6,229.6L225.6,229.6z"/>
	<path id="path735" inkscape:connector-curvature="0" class="st5" d="M229,251.6c0,0,30-13.2,68,0.3"/>
	<path id="path736" inkscape:connector-curvature="0" class="st14" d="M301.2,241.1c-41.9-14.9-75.4-0.8-75.4-0.8"/>
	<path id="path737" inkscape:connector-curvature="0" class="st16" d="M263.5,237.8l-3.4,1.9l3,2.1l3.6-2L263.5,237.8"/>
	<path id="path738" inkscape:connector-curvature="0" class="st14" d="M263.5,237.8l-3.4,1.9l3,2.1l3.6-2L263.5,237.8"/>
</g>
</svg>
