<?xml version="1.0" encoding="utf-8"?>
<!-- Generator: Adobe Illustrator 22.0.1, SVG Export Plug-In . SVG Version: 6.00 Build 0)  -->
<svg version="1.1"
	 id="flag-icon-css-ru" inkscape:version="0.92.2 2405546, 2018-03-11" sodipodi:docname="haw.svg" xmlns:cc="http://creativecommons.org/ns#" xmlns:dc="http://purl.org/dc/elements/1.1/" xmlns:inkscape="http://www.inkscape.org/namespaces/inkscape" xmlns:rdf="http://www.w3.org/1999/02/22-rdf-syntax-ns#" xmlns:sodipodi="http://sodipodi.sourceforge.net/DTD/sodipodi-0.dtd" xmlns:svg="http://www.w3.org/2000/svg"
	 xmlns="http://www.w3.org/2000/svg" xmlns:xlink="http://www.w3.org/1999/xlink" x="0px" y="0px" viewBox="0 0 640 480"
	 style="enable-background:new 0 0 640 480;" xml:space="preserve">
<style type="text/css">
	.st0{fill:#00247D;}
	.st1{stroke:#FFFFFF;stroke-width:2.4;}
	.st2{clip-path:url(#SVGID_2_);stroke:#CF142B;stroke-width:1.6;}
	.st3{stroke:#FFFFFF;stroke-width:4;}
	.st4{stroke:#CF142B;stroke-width:2.4;}
	.st5{fill:#FFFFFF;}
	.st6{stroke:#CF142B;stroke-width:59.8931;}
</style>
<sodipodi:namedview  bordercolor="#666666" borderopacity="1" gridtolerance="10" guidetolerance="10" id="namedview11" inkscape:current-layer="flag-icon-css-ru" inkscape:cx="320" inkscape:cy="240" inkscape:pageopacity="0" inkscape:pageshadow="2" inkscape:window-height="840" inkscape:window-maximized="1" inkscape:window-width="1600" inkscape:window-x="0" inkscape:window-y="30" inkscape:zoom="0.49166667" objecttolerance="10" pagecolor="#ffffff" showgrid="false">
	</sodipodi:namedview>
<rect id="rect5" y="2" class="st0" width="640" height="476.9"/>
<g id="g15" transform="matrix(19.96437,0,0,19.96437,-2.9980467,0.85511507)">
	<path id="path7" inkscape:connector-curvature="0" class="st1" d="M0.2,0.1l14,11.9 M14.2,0.1L0.2,12"/>
	<g>
		<defs>
			<path id="SVGID_1_" d="M0.2,0.1v6h14.7v6h-0.7L0.2,0.1z M14.2,0.1h-7V13h-7v-1L14.2,0.1z"/>
		</defs>
		<clipPath id="SVGID_2_">
			<use xlink:href="#SVGID_1_"  style="overflow:visible;"/>
		</clipPath>
		<path id="path9" inkscape:connector-curvature="0" class="st2" d="M0.2,0.1l14,11.9 M14.2,0.1L0.2,12"/>
	</g>
	<path id="path11" inkscape:connector-curvature="0" class="st3" d="M7.2,0.1V15 M0.2,6h16"/>
	<path id="path13" inkscape:connector-curvature="0" class="st4" d="M7.2,0.1V15 M0.2,6h16"/>
</g>
<path id="path17" inkscape:connector-curvature="0" class="st5" d="M280,240.4v-59.6l40-59.6l-40-59.6V2h360v476.9H0V359.7
	L280,240.4z"/>
<path id="path19" inkscape:connector-curvature="0" class="st0" d="M280,121.2v59.6h360V61.6L280,121.2z M0,300v59.6h640V240.4
	L0,300z"/>
<path id="path21" inkscape:connector-curvature="0" class="st6" d="M280,91.4h360 M0,270.2h640 M0,449.1h640"/>
</svg>
