<?xml version="1.0" encoding="UTF-8" standalone="no"?>
<svg
   xmlns:dc="http://purl.org/dc/elements/1.1/"
   xmlns:cc="http://creativecommons.org/ns#"
   xmlns:rdf="http://www.w3.org/1999/02/22-rdf-syntax-ns#"
   xmlns:svg="http://www.w3.org/2000/svg"
   xmlns="http://www.w3.org/2000/svg"
   xmlns:sodipodi="http://sodipodi.sourceforge.net/DTD/sodipodi-0.dtd"
   xmlns:inkscape="http://www.inkscape.org/namespaces/inkscape"
   width="21px"
   height="15px"
   viewBox="0 0 21 15"
   version="1.1"
   id="svg31"
   sodipodi:docname="jw.svg"
   inkscape:version="0.92.2 2405546, 2018-03-11">
  <metadata
     id="metadata35">
    <rdf:RDF>
      <cc:Work
         rdf:about="">
        <dc:format>image/svg+xml</dc:format>
        <dc:type
           rdf:resource="http://purl.org/dc/dcmitype/StillImage" />
        <dc:title>MG</dc:title>
      </cc:Work>
    </rdf:RDF>
  </metadata>
  <sodipodi:namedview
     pagecolor="#ffffff"
     bordercolor="#666666"
     borderopacity="1"
     objecttolerance="10"
     gridtolerance="10"
     guidetolerance="10"
     inkscape:pageopacity="0"
     inkscape:pageshadow="2"
     inkscape:window-width="1600"
     inkscape:window-height="843"
     id="namedview33"
     showgrid="false"
     inkscape:zoom="15.733333"
     inkscape:cx="18.815248"
     inkscape:cy="1.8016992"
     inkscape:window-x="0"
     inkscape:window-y="28"
     inkscape:window-maximized="1"
     inkscape:current-layer="svg31" />
  <!-- Generator: sketchtool 46 (44423) - http://www.bohemiancoding.com/sketch -->
  <title
     id="title2">MG</title>
  <desc
     id="desc4">Created with sketchtool.</desc>
  <defs
     id="defs21">
    <linearGradient
       x1="50%"
       y1="0%"
       x2="50%"
       y2="100%"
       id="linearGradient-1">
      <stop
         stop-color="#FFFFFF"
         offset="0%"
         id="stop6" />
      <stop
         stop-color="#F0F0F0"
         offset="100%"
         id="stop8" />
    </linearGradient>
    <linearGradient
       x1="6.4807407"
       y1="11.341296"
       x2="6.4807407"
       y2="24.302778"
       id="linearGradient-2"
       gradientTransform="matrix(1.6201852,0,0,1.1572751,0,-13.124999)"
       gradientUnits="userSpaceOnUse">
      <stop
         stop-color="#149047"
         offset="0%"
         id="stop11" />
      <stop
         stop-color="#0F7E3D"
         offset="100%"
         id="stop13" />
    </linearGradient>
    <linearGradient
       x1="6.0621778"
       y1="0"
       x2="6.0621778"
       y2="12.124356"
       id="linearGradient-3"
       gradientTransform="scale(1.7320508,0.57735027)"
       gradientUnits="userSpaceOnUse">
      <stop
         stop-color="#F84F4B"
         offset="0%"
         id="stop16" />
      <stop
         stop-color="#FA3F3B"
         offset="100%"
         id="stop18" />
    </linearGradient>
  </defs>
  <rect
     id="Rectangle-2"
     x="0"
     y="4.3361553e-07"
     width="21"
     height="15"
     style="fill:url(#linearGradient-2);fill-rule:evenodd;stroke:none;stroke-width:1.36930633" />
  <g
     transform="matrix(0.02992082,0,0,0.02894942,6.0441691,2.7113164)"
     id="g5981">
    <g
       id="g5973">
      <g
         id="g5611">
        <path
           style="fill:#ffff01;stroke:#000000;stroke-width:2;stroke-linecap:round;stroke-linejoin:round"
           d="m 30.2,168.6 c -16.8,1.3 -35.1,22.6 -8.6,49.4 13.1,-2.2 22.8,-3.2 18.3,-19.2 6.1,18.6 -18.1,19.1 -18.4,20.6 -2.1,8 4.5,12.7 13.4,14.7 -0.2,0 17.9,-1 16.2,-23.1 2.6,23.6 -17.9,20.2 -17.6,29 0.2,0.3 0.3,0.6 0.5,1 0,0.1 0,0.2 -0.1,0.3 21.1,42.7 56.4,72.9 97.5,79.7 0,0 0,0 0.1,0 1.4,0.2 2.9,0.5 4.4,0.7 0,0 0,0 0.1,0 1.5,0.2 2.9,0.3 4.4,0.5 0,0 0.1,0 0.1,0 1.5,0.1 2.9,0.2 4.4,0.3 1.6,0.1 3.1,0.1 4.7,0.1 6.1,0 12.1,-0.5 17.9,-1.5 41.1,-6.9 76.4,-37.1 97.5,-79.7 0.4,-1.4 -1.4,-7.6 -1.9,-8.5 -13,-4.2 -15.5,-11.1 -14.3,-21.5 -1.5,10.8 1.6,17.3 14.7,22.4 8,-2.2 10.6,-7.8 11.3,-16.7 -10.3,5.3 -17.5,-7.6 -14.6,-18.6 -3,10.9 4.2,23.8 14.8,18.7 27.8,-21 10.3,-47.2 -6.2,-48.5 15.4,6.5 7.8,25 -3.1,21 -8.2,-5 -16.4,-10.2 -19.7,2.5 l -14,17.2 c -8,-3.9 -16,-7.8 -22.4,-12.9 l -60,0.3 -60,-0.3 c -6.4,5.1 -14.4,8.9 -22.4,12.9 l -14,-17.2 C 49.8,179.6 41.6,184.7 33.5,189.7 22.4,193.6 14.8,175 30.2,168.6 Z"
           class="st1"
           sodipodi:nodetypes="cccscccccssssssscccccccccccccccccccc"
           inkscape:connector-curvature="0"
           id="path5569" />
        <path
           d="m 52.5,242.2 2.6,-1.3 2.6,5.5 -6.2,3 c -0.9,-0.2 -1.9,-0.8 -2.8,-1.6 -1,-0.8 -1.7,-1.7 -2.2,-2.7 -0.6,-1.3 -0.8,-2.5 -0.7,-3.8 0.2,-1.3 0.7,-2.5 1.7,-3.6 1,-1.1 2.3,-2.1 3.9,-2.9 1.7,-0.8 3.3,-1.2 4.8,-1.2 1.5,0 2.7,0.3 3.8,0.9 1,0.6 1.9,1.6 2.5,2.8 0.7,1.5 0.9,2.9 0.6,4.2 -0.3,1.3 -1.2,2.4 -2.6,3.4 l -1.8,-2.3 c 0.7,-0.6 1.1,-1.2 1.3,-1.9 0.2,-0.7 0.1,-1.4 -0.2,-2.1 -0.5,-1.1 -1.4,-1.8 -2.5,-2 -1.2,-0.3 -2.6,0 -4.4,0.8 -1.9,0.9 -3.1,1.9 -3.7,3.1 -0.5,1 -0.6,2.1 0,3.1 0.2,0.5 0.6,1 1.1,1.4 0.5,0.4 1,0.8 1.7,1 l 2,-0.9 z m -1.7,10.6 14.6,-9.1 5.5,8.9 -2.5,1.5 -4,-6.5 -3.2,2 3.7,6 -2.5,1.5 -3.7,-6 -4,2.5 4.2,6.7 -2.5,1.5 z m 7,11.1 13.5,-10.7 2.6,3.3 -7.6,9.3 10.8,-5.3 2.6,3.3 -13.5,10.7 -1.6,-2.1 10.6,-8.4 -12.3,6.2 -1.7,-2.1 8.9,-10.6 -10.6,8.4 z m 19.4,21.6 -2.2,-2.2 1.9,-3.6 -4,-4 -3.6,2 -2.2,-2.1 16,-8.4 2.1,2.1 z m 1.1,-8.5 3.1,-5.9 -5.8,3.2 z m 0.1,9.5 10.6,-13.5 2.2,1.7 -4.2,5.3 4.4,3.4 4.2,-5.3 2.2,1.8 -10.6,13.5 -2.2,-1.8 4.6,-5.9 -4.4,-3.4 -4.6,5.9 z m 15.9,11.6 8.2,-15.1 5.3,2.8 c 1.3,0.7 2.2,1.4 2.7,2 0.4,0.6 0.7,1.3 0.7,2.2 0,0.9 -0.2,1.8 -0.7,2.7 -0.6,1.2 -1.4,2 -2.4,2.4 -1,0.4 -2,0.4 -3.2,0.1 0.3,0.7 0.5,1.3 0.6,2 0.1,0.6 0.1,1.7 0.1,3.2 l -0.1,3.8 -3,-1.6 v -4.3 c 0,-1.5 -0.1,-2.5 -0.1,-3 -0.1,-0.4 -0.2,-0.8 -0.4,-1 -0.2,-0.3 -0.6,-0.5 -1.2,-0.8 l -0.5,-0.3 -3.4,6.3 z m 7.2,-7.4 1.9,1 c 1.1,0.6 1.9,1 2.2,1 0.4,0.1 0.7,0 1.1,-0.2 0.4,-0.2 0.7,-0.5 0.9,-1.1 0.3,-0.5 0.4,-0.9 0.3,-1.3 0,-0.4 -0.2,-0.7 -0.5,-1 -0.2,-0.2 -0.8,-0.6 -2,-1.2 l -2,-1.1 z m 5.4,13.8 6.8,-15.8 2.6,1.1 -6.8,15.8 z m 5.1,2.3 5.4,-16.3 4.3,1.4 c 1.6,0.5 2.6,1 3.1,1.3 0.7,0.5 1.2,1.3 1.4,2.3 0.2,1 0.1,2.1 -0.3,3.4 -0.4,1.2 -0.9,2.1 -1.7,2.7 -0.7,0.6 -1.5,1 -2.2,1.1 -0.8,0.1 -2,-0.1 -3.6,-0.7 l -1.8,-0.6 -2,6.1 z m 7.2,-12.7 -1.5,4.6 1.5,0.5 c 1,0.3 1.7,0.5 2.1,0.5 0.4,0 0.8,-0.2 1.1,-0.5 0.4,-0.3 0.6,-0.7 0.8,-1.2 0.2,-0.5 0.2,-1 0.1,-1.5 -0.1,-0.4 -0.3,-0.8 -0.6,-1 -0.3,-0.2 -1,-0.6 -2.1,-0.9 z m 17.8,19.1 -3,-0.6 -0.5,-4.1 -5.5,-1.1 -1.9,3.6 -3,-0.6 8.6,-15.8 3,0.6 z m -3.9,-7.7 -0.7,-6.6 -3.1,5.9 z m 5.4,7.8 0.9,-17.2 2.8,0.1 -0.4,6.8 5.6,0.3 0.4,-6.8 2.8,0.1 -0.9,17.2 -2.8,-0.1 0.4,-7.5 -5.6,-0.3 -0.4,7.5 z m 19.7,0.2 -2.5,-17 5.9,-0.9 c 1.5,-0.2 2.6,-0.2 3.3,0 0.7,0.2 1.3,0.7 1.8,1.4 0.5,0.7 0.9,1.6 1,2.6 0.2,1.3 0,2.4 -0.5,3.4 -0.5,0.9 -1.3,1.6 -2.5,1.9 0.7,0.3 1.2,0.7 1.7,1.2 0.5,0.5 1.1,1.3 2,2.5 l 2.2,3.1 -3.4,0.5 -2.6,-3.4 c -0.9,-1.2 -1.6,-2 -1.9,-2.3 -0.3,-0.3 -0.6,-0.5 -0.9,-0.6 -0.3,-0.1 -0.8,-0.1 -1.4,0 l -0.6,0.1 1.1,7.1 z m 1.3,-10.2 2.1,-0.3 c 1.3,-0.2 2.1,-0.4 2.4,-0.5 0.3,-0.2 0.6,-0.4 0.7,-0.8 0.2,-0.4 0.2,-0.8 0.1,-1.4 -0.1,-0.5 -0.3,-1 -0.5,-1.3 -0.3,-0.3 -0.6,-0.5 -1,-0.5 -0.3,0 -1,0 -2.3,0.2 l -2.2,0.3 z m 12.7,7.9 -4.8,-16.5 10,-2.9 0.8,2.8 -7.3,2.1 1.1,3.7 6.8,-2 0.8,2.8 -6.8,2 1.3,4.5 7.6,-2.2 0.8,2.8 z m 12.5,-3.9 -6.7,-15.8 4.2,-1.8 c 1.6,-0.7 2.6,-1 3.2,-1.1 0.9,-0.1 1.7,0.2 2.6,0.8 0.8,0.6 1.5,1.5 2.1,2.8 0.5,1.1 0.7,2.2 0.6,3.1 -0.1,1 -0.4,1.7 -0.9,2.3 -0.5,0.6 -1.6,1.2 -3.1,1.9 l -1.7,0.7 2.5,6 z m -2.9,-14.2 1.9,4.5 1.4,-0.6 c 1,-0.4 1.6,-0.8 1.9,-1 0.3,-0.3 0.5,-0.7 0.5,-1.1 0.1,-0.5 0,-0.9 -0.2,-1.5 -0.2,-0.5 -0.5,-0.9 -0.9,-1.2 -0.4,-0.3 -0.8,-0.4 -1.2,-0.4 -0.4,0 -1.1,0.3 -2.2,0.7 z m 15,8.9 -8.5,-14.9 9.1,-5.2 1.4,2.5 -6.6,3.8 1.9,3.3 6.2,-3.5 1.4,2.5 -6.2,3.5 2.3,4.1 6.8,-3.9 1.4,2.5 z m 11.3,-6.6 -10.1,-13.8 2.3,-1.7 4,5.5 4.5,-3.3 -4,-5.5 2.3,-1.7 10.1,13.9 -2.3,1.7 -4.4,-6.1 -4.5,3.3 4.4,6.1 z m 15.5,-12.1 -12.2,-12.1 4.2,-4.2 c 1.1,-1.1 2,-1.8 2.6,-2 0.7,-0.2 1.4,-0.3 2.3,0 0.8,0.2 1.6,0.7 2.4,1.5 1,0.9 1.5,1.9 1.6,3 0.1,1 -0.2,2 -0.8,3 0.7,-0.1 1.4,-0.1 2.1,-0.1 0.7,0 1.7,0.4 3.1,0.8 l 3.6,1.1 -2.4,2.4 -4.1,-1.2 c -1.5,-0.4 -2.4,-0.7 -2.9,-0.7 -0.4,-0.1 -0.8,0 -1.1,0.1 -0.3,0.1 -0.7,0.4 -1.1,0.9 l -0.4,0.4 5.1,5.1 z m -5,-9 1.5,-1.5 c 0.9,-0.9 1.4,-1.5 1.6,-1.9 0.2,-0.4 0.2,-0.7 0.1,-1.1 -0.1,-0.4 -0.3,-0.8 -0.7,-1.2 -0.4,-0.4 -0.8,-0.6 -1.2,-0.7 -0.4,-0.1 -0.8,0 -1.1,0.1 -0.2,0.1 -0.8,0.6 -1.7,1.5 l -1.6,1.6 z m 22.8,-11.2 -1.9,2.4 -3.8,-1.5 -3.5,4.4 2.3,3.3 -1.9,2.4 -10.1,-15 1.9,-2.4 z m -8.6,-0.1 -6.2,-2.4 3.8,5.5 z m 9.4,-1.2 -14.5,-9.2 2.4,-3.9 c 0.9,-1.4 1.6,-2.3 2,-2.7 0.7,-0.6 1.5,-0.8 2.5,-0.8 1,0 2.1,0.4 3.3,1.1 1.1,0.7 1.8,1.4 2.3,2.3 0.5,0.8 0.6,1.7 0.6,2.4 -0.1,0.8 -0.6,1.9 -1.5,3.3 l -1,1.6 5.5,3.5 z m -10.6,-10 4.1,2.6 0.8,-1.3 c 0.6,-0.9 0.9,-1.5 1,-1.9 0.1,-0.4 0,-0.8 -0.2,-1.2 -0.2,-0.4 -0.5,-0.8 -1,-1.1 -0.5,-0.3 -1,-0.5 -1.4,-0.5 -0.5,0 -0.8,0.1 -1.2,0.4 -0.3,0.2 -0.8,0.9 -1.4,1.9 z m 17.3,-1.1 -15.2,-8.1 1.3,-2.5 15.2,8.1 z m 2.7,-4.9 -15.8,-6.8 1.1,-2.6 6.2,2.7 2.2,-5.1 -6.2,-2.7 1.1,-2.6 15.8,6.8 -1.1,2.6 -6.9,-3 -2.2,5.1 6.9,3 z"
           inkscape:transform-center-y="67.32898"
           inkscape:transform-center-x="0.9185606"
           inkscape:connector-curvature="0"
           id="text5603" />
      </g>
      <g
         id="g5156">
        <ellipse
           style="fill:#ffff01;stroke:#000000;stroke-width:1.73790002;stroke-linecap:round;stroke-linejoin:round"
           ry="140.7"
           rx="101.2"
           cy="148.8"
           cx="149.10001"
           class="st2"
           id="path3761" />
        <ellipse
           style="fill:#009543;stroke:#000000;stroke-width:1.89139998;stroke-linecap:round;stroke-linejoin:round"
           ry="131.8"
           rx="92.900002"
           cy="149.8"
           cx="149.10001"
           class="st3"
           id="path3759" />
      </g>
    </g>
    <g
       id="g5901">
      <g
         id="g5182">
        <path
           style="fill:#201b17"
           d="m 135,165.1 -13.5,27.3 -7,-11.1 H 83.6 l -18.2,22.6 h 167.7 l -16.4,-20.1 h -30.8 l -6.9,7.7 -13.1,-26.4 z"
           class="st4"
           sodipodi:nodetypes="ccccccccccc"
           inkscape:connector-curvature="0"
           id="rect2554" />
        <g
           id="g3766">
          <g
             transform="translate(-0.1532324)"
             id="g3622">
            <path
               d="m 114.5,49.3 c -5.4,0.5 -6.3,7.4 -10.3,9.3 -1.5,-0.2 -2.1,0.7 -2.6,1.8 -0.1,-0.3 -0.1,-0.5 -0.2,-0.8 0,0 0,0 0,0 0,0 0,0 0,0 0,-0.1 0.1,-0.1 0.1,-0.2 0,-0.1 0.1,-0.2 0.1,-0.2 0,0 0,-0.1 0,-0.1 0,0 0,0 0,0 0,0 0,-0.1 0,-0.1 l -1,-0.2 c 0,0 0,0 0,-0.1 0,0 0,0 0,0.1 0,0.1 -0.1,0.2 -0.1,0.3 0,0.1 -0.1,0.2 -0.1,0.3 0,0.1 -0.1,0.1 -0.1,0.3 0,0.6 0.2,1.3 0.4,1.8 0.1,0.2 0.1,0.4 0.2,0.6 -0.3,0.9 -0.6,1.7 -1.1,2.4 -1.6,3.1 -3.5,6 -4.8,9.2 -4.1,0.3 -1.6,5.3 -2.5,8.4 1.1,4.3 -3.6,6.7 -2.6,11 0.2,3.9 3.5,7.2 3,11 0.2,3.1 -3.1,5.1 0.5,6.9 2.9,3.1 3.6,7.3 3.9,11.3 0,0 -2.2,2 0.2,2.2 3.3,1.9 5.9,5.2 7.3,8.3 0.8,1.9 3.8,4.2 0,2.7 -2.3,0.3 -0.4,3.2 1.8,2.5 4,1.1 7.7,3 10.3,6.2 1.5,1.2 3.3,2.3 0.2,2.1 -2.4,3 4,1.3 6,2.2 2.5,0.7 6.5,1.7 5.4,3.7 1.6,2 4.6,-2.1 7.1,0.3 1.7,1.1 7.5,3.8 5.6,0.4 -3,-2.2 -7.4,-3.1 -10.5,-3.3 -2,-1.5 -1.9,-3.8 -3.6,-5.3 -1.9,1.6 1.1,4.8 -2.3,2.7 -3.9,-0.3 -5.2,-3.6 -8.5,-6.3 -0.2,-1.6 -1.5,-4 -2.7,-2.4 -2.7,0.2 -7,-3.9 -8.1,-7.4 -1.3,-1.6 1.5,-7.7 -1.3,-5.3 -0.5,2.2 -0.5,3.2 -2,0.8 -3.8,-2.3 -4.4,-6.8 -3.3,-10.7 1.9,-1.9 -0.7,-4.6 -1.2,-1.3 -0.5,0.2 -2.7,-4.2 -3.7,-5.5 -1.1,-3.3 2,-5.6 1.3,-8.3 -2.5,0 -2.9,-5.1 -3.9,-7.8 -2.1,-3.7 5.4,-5.8 2.8,-8.2 -0.5,-0.6 -0.3,-7.3 0.4,-8.5 0.5,-2.7 8.7,-4.2 6.6,-6.9 -1.4,0.3 -6.6,5.2 -3.9,1.5 1.9,-2.5 3,-5.7 4.6,-8.3 0.6,-0.9 1.6,-2.2 2.6,-3.1 1.5,0 8.9,-1.6 4.9,-2 -3.2,0.5 0.2,-3.4 1.1,-4.9 0.8,-1.6 4.9,-1.3 4,-3.1 z"
               sodipodi:nodetypes="cccsssssssccsssssscccccccccccccccccccccccccccccccccccccccc"
               inkscape:connector-curvature="0"
               id="path2627" />
            <g
               id="g3598">
              <path
                 style="fill:#ffff01;stroke:#000000"
                 d="m 135,39.7 c -7,4.3 -8.3,0.5 -13.5,1.7 -5.2,1.1 -6.4,4.5 -7.7,8.1 6.6,2.1 7.8,2.1 10.9,-0.5 3.2,-2.5 7.2,-6.2 10.3,-9.3 z"
                 class="st5"
                 sodipodi:nodetypes="czczc"
                 inkscape:connector-curvature="0"
                 id="path2593" />
              <path
                 style="fill:#ffff01;stroke:#000000"
                 d="m 112.1,39 c -4.7,6.8 -1.6,7.8 -3,12.9 -1.4,5.1 -4.9,6.1 -8.5,7.2 -1.8,-6.7 -1.7,-7.8 1,-10.8 2.7,-3 7.2,-6.4 10.5,-9.3 z"
                 class="st5"
                 sodipodi:nodetypes="czczc"
                 inkscape:connector-curvature="0"
                 id="path2595" />
              <path
                 style="fill:#ffff01;stroke:#000000"
                 d="m 94.4,51.3 c -1.4,8.1 2.6,7.9 3.5,13.1 0.9,5.2 -1.8,7.6 -4.7,10.1 -4.5,-5.3 -4.8,-6.4 -3.7,-10.3 1.3,-3.7 3.2,-8.9 4.9,-12.9 z"
                 class="st5"
                 sodipodi:nodetypes="czczc"
                 inkscape:connector-curvature="0"
                 id="path2597" />
              <path
                 style="fill:#ffff01;stroke:#000000"
                 d="m 85.3,68.9 c 0.6,8.2 4.4,7 6.5,11.9 2.1,4.9 0.1,7.8 -2.1,11 -5.6,-4.1 -6.2,-5.1 -6,-9.1 0.3,-4 0.9,-9.5 1.6,-13.8 z"
                 class="st5"
                 sodipodi:nodetypes="czczc"
                 inkscape:connector-curvature="0"
                 id="path2599" />
              <path
                 style="fill:#ffff01;stroke:#000000"
                 d="m 79.9,88.8 c 3.2,7.6 6.4,5.3 10,9.2 3.5,4 2.5,7.4 1.5,11.1 -6.6,-2.1 -7.5,-2.8 -8.6,-6.7 -1.1,-3.9 -2.3,-9.3 -2.9,-13.6 z"
                 class="st5"
                 sodipodi:nodetypes="czczc"
                 inkscape:connector-curvature="0"
                 id="path2601" />
              <path
                 style="fill:#ffff01;stroke:#000000"
                 d="m 80.5,107.9 c 4.9,6.6 7.5,3.6 11.9,6.5 4.4,3 4.3,6.6 4.1,10.4 -6.9,-0.4 -8,-0.9 -9.9,-4.4 -2,-3.5 -4.4,-8.4 -6.1,-12.5 z"
                 class="st5"
                 sodipodi:nodetypes="czczc"
                 inkscape:connector-curvature="0"
                 id="path2603" />
              <path
                 style="fill:#ffff01;stroke:#000000"
                 d="m 84.7,125.8 c 6.7,4.8 8.2,1.1 13.3,2.6 5.1,1.5 6.1,4.9 7.1,8.6 -6.7,1.7 -7.9,1.5 -10.8,-1.2 -2.9,-2.7 -6.7,-6.7 -9.6,-10 z"
                 class="st5"
                 sodipodi:nodetypes="czczc"
                 inkscape:connector-curvature="0"
                 id="path2605" />
              <path
                 style="fill:#ffff01;stroke:#000000"
                 d="m 95.6,142.4 c 7.7,2.8 8.2,-1.2 13.5,-1.1 5.3,0.1 7.2,3.1 9.2,6.4 -6,3.4 -7.2,3.6 -10.7,1.8 -3.7,-1.9 -8.4,-4.7 -12,-7.1 z"
                 class="st5"
                 sodipodi:nodetypes="czczc"
                 inkscape:connector-curvature="0"
                 id="path2607" />
              <path
                 style="fill:#ffff01;stroke:#000000"
                 d="m 106.4,154.6 c 8.2,0 7.4,-3.9 12.4,-5.6 5,-1.7 7.8,0.5 10.8,2.9 -4.5,5.3 -5.5,5.8 -9.5,5.3 -4.1,-0.5 -9.5,-1.6 -13.7,-2.6 z"
                 class="st5"
                 sodipodi:nodetypes="czczc"
                 inkscape:connector-curvature="0"
                 id="path2609" />
              <path
                 style="fill:#ffff01;stroke:#000000"
                 d="m 116.6,127.3 c 5.1,6.4 1.5,8.2 3.3,13.2 1.8,5 5.3,5.8 9,6.6 1.3,-6.8 1.1,-7.9 -1.8,-10.7 -2.9,-2.9 -7.1,-6.5 -10.5,-9.1 z"
                 class="st5"
                 sodipodi:nodetypes="czczc"
                 inkscape:connector-curvature="0"
                 id="path2611" />
              <path
                 style="fill:#ffff01;stroke:#000000"
                 d="m 107,117.8 c 3.9,7.2 0,8.3 0.8,13.6 0.8,5.2 4.1,6.6 7.6,8.2 2.5,-6.5 2.5,-7.6 0.2,-10.9 -2.2,-3.3 -5.7,-7.6 -8.6,-10.9 z"
                 class="st5"
                 sodipodi:nodetypes="czczc"
                 inkscape:connector-curvature="0"
                 id="path2613" />
              <path
                 style="fill:#ffff01;stroke:#000000"
                 d="m 103,104.5 c 1.5,8.1 -2.5,7.9 -3.2,13.2 -0.8,5.3 1.9,7.6 4.8,10.1 4.4,-5.4 4.7,-6.5 3.5,-10.3 -1.3,-3.9 -3.3,-9 -5.1,-13 z"
                 class="st5"
                 sodipodi:nodetypes="czczc"
                 inkscape:connector-curvature="0"
                 id="path2615" />
              <path
                 style="fill:#ffff01;stroke:#000000"
                 d="m 103.8,91.9 c -1.2,8.1 -4.9,6.7 -7.4,11.4 -2.5,4.7 -0.7,7.8 1.3,11.1 5.9,-3.7 6.6,-4.6 6.7,-8.6 0,-4 -0.2,-9.5 -0.6,-13.9 z"
                 class="st5"
                 sodipodi:nodetypes="czczc"
                 inkscape:connector-curvature="0"
                 id="path2617" />
              <path
                 style="fill:#ffff01;stroke:#000000"
                 d="m 106,80.5 c -3.2,7.6 -6.4,5.3 -10,9.2 -3.5,3.9 -2.5,7.4 -1.5,11.1 6.6,-2.1 7.5,-2.8 8.6,-6.7 1.1,-3.9 2.2,-9.3 2.9,-13.6 z"
                 class="st5"
                 sodipodi:nodetypes="czczc"
                 inkscape:connector-curvature="0"
                 id="path2619" />
              <path
                 style="fill:#ffff01;stroke:#000000"
                 d="m 112.1,69.9 c -5.6,6 -7.8,2.8 -12.5,5.3 -4.7,2.5 -4.9,6.1 -5.2,9.9 6.9,0.3 8,-0.1 10.3,-3.4 2.4,-3.3 5.3,-8 7.4,-11.8 z"
                 class="st5"
                 sodipodi:nodetypes="czczc"
                 inkscape:connector-curvature="0"
                 id="path2621" />
              <path
                 style="fill:#ffff01;stroke:#000000"
                 d="m 120.5,59 c -6.5,5 -8.2,1.4 -13.2,3 -5,1.7 -5.9,5.1 -6.8,8.8 6.8,1.5 7.9,1.3 10.8,-1.5 2.8,-2.8 6.5,-6.9 9.2,-10.3 z"
                 class="st5"
                 sodipodi:nodetypes="czczc"
                 inkscape:connector-curvature="0"
                 id="path2623" />
              <path
                 style="fill:#ffff01;stroke:#000000"
                 d="m 132.1,52.8 c -7.7,2.8 -8.2,-1.2 -13.5,-1.1 -5.3,0.1 -7.2,3.1 -9.1,6.4 6,3.4 7.2,3.6 10.7,1.8 3.5,-1.9 8.3,-4.7 11.9,-7.1 z"
                 class="st5"
                 sodipodi:nodetypes="czczc"
                 inkscape:connector-curvature="0"
                 id="path2625" />
            </g>
          </g>
          <g
             id="g3724">
            <g
               transform="matrix(-0.3907305,-0.5396007,0.5396007,-0.3907305,163.28569,193.82963)"
               id="g3718">
              <path
                 d="m 169.8,136.1 c -0.2,2 -0.2,4 -3.5,7.7 -0.8,1.9 -1.7,3.5 0.5,7 -0.1,0.1 -0.3,0.2 -0.4,0.2 -1,0.4 -1.9,0.6 -3,0.7 -1.3,-0.2 -2.6,0.1 -3.7,0.9 -1.1,0.6 -2.1,1.7 -2.4,3 l 0.1,-0.2 0.1,-0.1 c 0.1,-0.1 0.2,-0.3 0.4,-0.5 -0.1,0.1 -0.1,0 0.2,-0.4 0.4,-0.5 0.1,0 -0.2,0.4 0.2,-0.1 0.8,-0.6 1.1,-0.8 0.8,-0.6 1.7,-1.1 2.7,-1 1.1,0.1 2.2,-0.1 3.3,-0.2 0.8,0 1.6,-0.6 2.3,-1.1 9.8,8.1 12.8,-0.2 17.9,0.9 -2,-9.2 -7.6,-14.2 -15.4,-16.5 z"
                 sodipodi:nodetypes="ccccccccccsccscccc"
                 inkscape:connector-curvature="0"
                 id="path3720" />
              <path
                 style="fill:#ffffff"
                 d="m 170.2,134.1 c -2,1.3 -0.2,10.3 7.7,8.7 -0.1,4.6 -2.4,10.3 8,9.5 3,-2 0.6,-4.1 -0.6,-6.1 5.3,-6.4 -3,-12.6 -8.1,-10.3 -2.1,-2.1 -5.1,-3.6 -7,-1.8 z"
                 class="st6"
                 sodipodi:nodetypes="cccccc"
                 inkscape:connector-curvature="0"
                 id="path3722" />
            </g>
            <g
               transform="matrix(-0.2002203,-0.7356854,0.7356854,-0.2002203,111.39063,205.66806)"
               id="g3712">
              <path
                 d="m 169.8,136.1 c -0.2,2 -0.2,4 -3.5,7.7 -0.8,1.9 -1.7,3.5 0.5,7 -0.1,0.1 -0.3,0.2 -0.4,0.2 -1,0.4 -1.9,0.6 -3,0.7 -1.3,-0.2 -2.6,0.1 -3.7,0.9 -1.1,0.6 -2.1,1.7 -2.4,3 l 0.1,-0.2 0.1,-0.1 c 0.1,-0.1 0.2,-0.3 0.4,-0.5 -0.1,0.1 -0.1,0 0.2,-0.4 0.4,-0.5 0.1,0 -0.2,0.4 0.2,-0.1 0.8,-0.6 1.1,-0.8 0.8,-0.6 1.7,-1.1 2.8,-1 1.1,0.1 2.2,-0.1 3.3,-0.2 0.8,0 1.6,-0.6 2.3,-1.1 9.8,8.1 12.8,-0.2 17.9,0.9 -2.1,-9.2 -7.7,-14.2 -15.5,-16.5 z"
                 sodipodi:nodetypes="ccccccccccsccscccc"
                 inkscape:connector-curvature="0"
                 id="path3714" />
              <path
                 style="fill:#ffffff"
                 d="m 170.2,134.1 c -2,1.3 -0.2,10.3 7.7,8.7 -0.1,4.6 -2.4,10.3 8,9.5 3,-2 0.6,-4.1 -0.6,-6.1 5.3,-6.4 -3,-12.6 -8.1,-10.3 -2.1,-2.1 -5.1,-3.6 -7,-1.8 z"
                 class="st6"
                 sodipodi:nodetypes="cccccc"
                 inkscape:connector-curvature="0"
                 id="path3716" />
            </g>
            <g
               transform="matrix(-0.01813293,-0.7624907,0.7624907,-0.01813293,84.868754,190.88333)"
               id="g3706">
              <path
                 d="m 169.8,136.1 c -0.2,2 -0.2,4 -3.5,7.7 -0.8,1.9 -1.7,3.5 0.5,7 -0.1,0.1 -0.3,0.2 -0.4,0.2 -1,0.4 -1.9,0.6 -3,0.7 -1.3,-0.2 -2.6,0.1 -3.7,0.9 -1.1,0.6 -2.1,1.7 -2.4,3 l 0.1,-0.2 0.1,-0.1 c 0.1,-0.1 0.2,-0.3 0.4,-0.5 -0.1,0.1 -0.1,0 0.2,-0.4 0.4,-0.5 0.1,0 -0.2,0.4 0.2,-0.1 0.8,-0.6 1.1,-0.8 0.8,-0.6 1.7,-1.1 2.8,-1 1.1,0.1 2.2,-0.1 3.3,-0.2 0.8,0 1.6,-0.6 2.3,-1.1 9.8,8.1 12.8,-0.2 17.9,0.9 -2.1,-9.2 -7.7,-14.2 -15.5,-16.5 z"
                 sodipodi:nodetypes="ccccccccccsccscccc"
                 inkscape:connector-curvature="0"
                 id="path3708" />
              <path
                 style="fill:#ffffff"
                 d="m 170.2,134.1 c -2,1.3 -0.2,10.3 7.7,8.7 -0.1,4.6 -2.4,10.3 8,9.5 3,-2 0.6,-4.1 -0.6,-6.1 5.3,-6.4 -3,-12.6 -8.1,-10.3 -2.1,-2.1 -5.1,-3.6 -7,-1.8 z"
                 class="st6"
                 sodipodi:nodetypes="cccccc"
                 inkscape:connector-curvature="0"
                 id="path3710" />
            </g>
            <g
               transform="matrix(0.1369728,-0.8106243,0.8106243,0.1369728,57.584476,187.37416)"
               id="g3700">
              <path
                 d="m 169.8,136.1 c -0.2,2 -0.2,4 -3.5,7.7 -0.8,1.9 -1.7,3.5 0.5,7 -0.1,0.1 -0.3,0.2 -0.4,0.2 -1,0.4 -1.9,0.6 -3,0.7 -1.3,-0.2 -2.6,0.1 -3.7,0.9 -1.1,0.6 -2.1,1.7 -2.4,3 l 0.1,-0.2 0.1,-0.1 c 0.1,-0.1 0.2,-0.3 0.4,-0.5 -0.1,0.1 -0.1,0 0.2,-0.4 0.4,-0.5 0.1,0 -0.2,0.4 0.2,-0.1 0.8,-0.6 1.1,-0.8 0.8,-0.6 1.7,-1.1 2.7,-1 1.1,0.1 2.2,-0.1 3.3,-0.2 0.8,0 1.6,-0.6 2.3,-1.1 9.8,8.1 12.8,-0.2 17.9,0.9 -2,-9.2 -7.6,-14.2 -15.4,-16.5 z"
                 sodipodi:nodetypes="ccccccccccsccscccc"
                 inkscape:connector-curvature="0"
                 id="path3702" />
              <path
                 style="fill:#ffffff"
                 d="m 170.2,134.1 c -2,1.3 -0.2,10.3 7.7,8.7 -0.1,4.6 -2.4,10.3 8,9.5 3,-2 0.6,-4.1 -0.6,-6.1 5.3,-6.4 -3,-12.6 -8.1,-10.3 -2.1,-2.1 -5.1,-3.6 -7,-1.8 z"
                 class="st6"
                 sodipodi:nodetypes="cccccc"
                 inkscape:connector-curvature="0"
                 id="path3704" />
            </g>
            <g
               transform="matrix(0.3280461,-0.7538296,0.7538296,0.3280461,37.3971,160.50457)"
               id="g3694">
              <path
                 d="m 169.8,136.1 c -0.2,2 -0.2,4 -3.5,7.7 -0.8,1.9 -1.7,3.5 0.5,7 -0.1,0.1 -0.3,0.2 -0.4,0.2 -1,0.4 -1.9,0.6 -3,0.7 -1.3,-0.2 -2.6,0.1 -3.7,0.9 -1.1,0.6 -2.1,1.7 -2.4,3 l 0.1,-0.2 0.1,-0.1 c 0.1,-0.1 0.2,-0.3 0.4,-0.5 -0.1,0.1 -0.1,0 0.2,-0.4 0.4,-0.5 0.1,0 -0.2,0.4 0.2,-0.1 0.8,-0.6 1.1,-0.8 0.8,-0.6 1.7,-1.1 2.8,-1 1.1,0.1 2.2,-0.1 3.2,-0.2 0.8,0 1.6,-0.6 2.3,-1.1 9.8,8.1 12.8,-0.2 17.9,0.9 -2,-9.2 -7.6,-14.2 -15.4,-16.5 z"
                 sodipodi:nodetypes="ccccccccccsccscccc"
                 inkscape:connector-curvature="0"
                 id="path3696" />
              <path
                 style="fill:#ffffff"
                 d="m 170.2,134.1 c -2,1.3 -0.2,10.3 7.7,8.7 -0.1,4.6 -2.4,10.3 8,9.5 3,-2 0.6,-4.1 -0.6,-6.1 5.3,-6.4 -3,-12.6 -8.1,-10.3 -2.1,-2.1 -5.1,-3.6 -7,-1.8 z"
                 class="st6"
                 sodipodi:nodetypes="cccccc"
                 inkscape:connector-curvature="0"
                 id="path3698" />
            </g>
            <g
               transform="matrix(0.4556987,-0.8035068,0.8035068,0.4556987,9.0754286,163.91555)"
               id="g3682">
              <path
                 d="m 169.8,136.1 c -0.2,2 -0.2,4 -3.5,7.7 -0.8,1.9 -1.7,3.5 0.5,7 -0.1,0.1 -0.3,0.2 -0.4,0.2 -1,0.4 -1.9,0.6 -3,0.7 -1.3,-0.2 -2.6,0.1 -3.7,0.9 -1.1,0.6 -2.1,1.7 -2.4,3 l 0.1,-0.2 0.1,-0.1 c 0.1,-0.1 0.2,-0.3 0.4,-0.5 -0.1,0.1 -0.1,0 0.2,-0.4 0.4,-0.5 0.1,0 -0.2,0.4 0.2,-0.1 0.8,-0.6 1.1,-0.8 0.8,-0.6 1.7,-1.1 2.8,-1 1.1,0.1 2.2,-0.1 3.3,-0.2 0.8,0 1.6,-0.6 2.3,-1.1 9.8,8.1 12.8,-0.2 17.9,0.9 -2.1,-9.2 -7.7,-14.2 -15.5,-16.5 z"
                 sodipodi:nodetypes="ccccccccccsccscccc"
                 inkscape:connector-curvature="0"
                 id="path3684" />
              <path
                 style="fill:#ffffff"
                 d="m 170.2,134.1 c -2,1.3 -0.2,10.3 7.7,8.7 -0.1,4.6 -2.4,10.3 8,9.5 3,-2 0.6,-4.1 -0.6,-6.1 5.3,-6.4 -3,-12.6 -8.1,-10.3 -2.1,-2.1 -5.1,-3.6 -7,-1.8 z"
                 class="st6"
                 sodipodi:nodetypes="cccccc"
                 inkscape:connector-curvature="0"
                 id="path3686" />
            </g>
            <g
               transform="matrix(0.6719192,-0.6338842,0.6338842,0.6719192,-4.1798567,116.18578)"
               id="g3676">
              <path
                 d="m 169.8,136.1 c -0.2,2 -0.2,4 -3.5,7.7 -0.8,1.9 -1.7,3.5 0.5,7 -0.1,0.1 -0.3,0.2 -0.4,0.2 -1,0.4 -1.9,0.6 -3,0.7 -1.3,-0.2 -2.6,0.1 -3.7,0.9 -1.1,0.6 -2.1,1.7 -2.4,3 l 0.1,-0.2 0.1,-0.1 c 0.1,-0.1 0.2,-0.3 0.4,-0.5 -0.1,0.1 -0.1,0 0.2,-0.4 0.4,-0.5 0.1,0 -0.2,0.4 0.2,-0.1 0.8,-0.6 1.1,-0.8 0.8,-0.6 1.7,-1.1 2.8,-1 1.1,0.1 2.2,-0.1 3.3,-0.2 0.8,0 1.6,-0.6 2.3,-1.1 9.8,8.1 12.8,-0.2 17.9,0.9 -2.1,-9.2 -7.7,-14.2 -15.5,-16.5 z"
                 sodipodi:nodetypes="ccccccccccsccscccc"
                 inkscape:connector-curvature="0"
                 id="path3678" />
              <path
                 style="fill:#ffffff"
                 d="m 170.2,134.1 c -2,1.3 -0.2,10.3 7.7,8.7 -0.1,4.6 -2.4,10.3 8,9.5 3,-2 0.6,-4.1 -0.6,-6.1 5.3,-6.4 -3,-12.6 -8.1,-10.3 -2.1,-2.1 -5.1,-3.6 -7,-1.8 z"
                 class="st6"
                 sodipodi:nodetypes="cccccc"
                 inkscape:connector-curvature="0"
                 id="path3680" />
            </g>
            <g
               transform="matrix(0.7841165,-0.4883092,0.4883092,0.7841165,-5.5593944,88.072608)"
               id="g3670">
              <path
                 d="m 169.8,136.1 c -0.2,2 -0.2,4 -3.5,7.7 -0.8,1.9 -1.7,3.5 0.5,7 -0.1,0.1 -0.3,0.2 -0.4,0.2 -1,0.4 -1.9,0.6 -3,0.7 -1.3,-0.2 -2.6,0.1 -3.7,0.9 -1.1,0.6 -2.1,1.7 -2.4,3 l 0.1,-0.2 0.1,-0.1 c 0.1,-0.1 0.2,-0.3 0.4,-0.5 -0.1,0.1 -0.1,0 0.2,-0.4 0.4,-0.5 0.1,0 -0.2,0.4 0.2,-0.1 0.8,-0.6 1.1,-0.8 0.8,-0.6 1.7,-1.1 2.7,-1 1.1,0.1 2.2,-0.1 3.3,-0.2 0.8,0 1.6,-0.6 2.3,-1.1 9.8,8.1 12.8,-0.2 17.9,0.9 -2,-9.2 -7.6,-14.2 -15.4,-16.5 z"
                 sodipodi:nodetypes="ccccccccccsccscccc"
                 inkscape:connector-curvature="0"
                 id="path3672" />
              <path
                 style="fill:#ffffff"
                 d="m 170.2,134.1 c -2,1.3 -0.2,10.3 7.7,8.7 -0.1,4.6 -2.4,10.3 8,9.5 3,-2 0.6,-4.1 -0.6,-6.1 5.3,-6.4 -3,-12.6 -8.1,-10.3 -2.1,-2.1 -5.1,-3.6 -7,-1.8 z"
                 class="st6"
                 sodipodi:nodetypes="cccccc"
                 inkscape:connector-curvature="0"
                 id="path3674" />
            </g>
            <g
               transform="matrix(0.8958988,-0.2250555,0.2250555,0.8958988,5.9226641,37.490389)"
               id="g3664">
              <path
                 d="m 169.8,136.1 c -0.2,2 -0.2,4 -3.5,7.7 -0.8,1.9 -1.7,3.5 0.5,7 -0.1,0.1 -0.3,0.2 -0.4,0.2 -1,0.4 -1.9,0.6 -3,0.7 -1.3,-0.2 -2.6,0.1 -3.7,0.9 -1.1,0.6 -2.1,1.7 -2.4,3 l 0.1,-0.2 0.1,-0.1 c 0.1,-0.1 0.2,-0.3 0.4,-0.5 -0.1,0.1 -0.1,0 0.2,-0.4 0.4,-0.5 0.1,0 -0.2,0.4 0.2,-0.1 0.8,-0.6 1.1,-0.8 0.8,-0.6 1.7,-1.1 2.7,-1 1.1,0.1 2.2,-0.1 3.3,-0.2 0.8,0 1.6,-0.6 2.3,-1.1 9.8,8.1 12.8,-0.2 17.9,0.9 -2,-9.2 -7.6,-14.2 -15.4,-16.5 z"
                 sodipodi:nodetypes="ccccccccccsccscccc"
                 inkscape:connector-curvature="0"
                 id="path3666" />
              <path
                 style="fill:#ffffff"
                 d="m 170.2,134.1 c -2,1.3 -0.2,10.3 7.7,8.7 -0.1,4.6 -2.4,10.3 8,9.5 3,-2 0.6,-4.1 -0.6,-6.1 5.3,-6.4 -3,-12.6 -8.1,-10.3 -2.1,-2.1 -5.1,-3.6 -7,-1.8 z"
                 class="st6"
                 sodipodi:nodetypes="cccccc"
                 inkscape:connector-curvature="0"
                 id="path3668" />
            </g>
            <g
               transform="matrix(0.9206122,-0.07588105,0.07588105,0.9206122,14.062055,17.216794)"
               id="g3658">
              <path
                 d="m 169.8,136.1 c -0.2,2 -0.2,4 -3.5,7.7 -0.8,1.9 -1.7,3.5 0.5,7 -0.1,0.1 -0.3,0.2 -0.4,0.2 -1,0.4 -1.9,0.6 -3,0.7 -1.3,-0.2 -2.6,0.1 -3.7,0.9 -1.1,0.6 -2.1,1.7 -2.4,3 l 0.1,-0.2 0.1,-0.1 c 0.1,-0.1 0.2,-0.3 0.4,-0.5 -0.1,0.1 -0.1,0 0.2,-0.4 0.4,-0.5 0.1,0 -0.2,0.4 0.2,-0.1 0.8,-0.6 1.1,-0.8 0.8,-0.6 1.7,-1.1 2.8,-1 1.1,0.1 2.2,-0.1 3.3,-0.2 0.8,0 1.6,-0.6 2.3,-1.1 9.8,8.1 12.8,-0.2 17.9,0.9 -2.1,-9.2 -7.7,-14.2 -15.5,-16.5 z"
                 sodipodi:nodetypes="ccccccccccsccscccc"
                 inkscape:connector-curvature="0"
                 id="path3660" />
              <path
                 style="fill:#ffffff"
                 d="m 170.2,134.1 c -2,1.3 -0.2,10.3 7.7,8.7 -0.1,4.6 -2.4,10.3 8,9.5 3,-2 0.6,-4.1 -0.6,-6.1 5.3,-6.4 -3,-12.6 -8.1,-10.3 -2.1,-2.1 -5.1,-3.6 -7,-1.8 z"
                 class="st6"
                 sodipodi:nodetypes="cccccc"
                 inkscape:connector-curvature="0"
                 id="path3662" />
            </g>
            <g
               id="g3654">
              <path
                 d="m 169.8,136.1 c -0.2,2 -0.2,4 -3.5,7.7 -0.8,1.9 -1.7,3.5 0.5,7 -0.1,0.1 -0.3,0.2 -0.4,0.2 -1,0.4 -1.9,0.6 -3,0.7 -1.3,-0.2 -2.6,0.1 -3.7,0.9 -1.1,0.6 -2.1,1.7 -2.4,3 l 0.1,-0.2 0.1,-0.1 c 0.1,-0.1 0.2,-0.3 0.4,-0.5 -0.1,0.1 -0.1,0 0.2,-0.4 0.4,-0.5 0.1,0 -0.2,0.4 0.2,-0.1 0.8,-0.6 1.1,-0.8 0.8,-0.6 1.7,-1.1 2.8,-1 1.1,0.1 2.2,-0.1 3.3,-0.2 0.8,0 1.6,-0.6 2.3,-1.1 9.8,8.1 12.8,-0.2 17.9,0.9 -2.1,-9.2 -7.7,-14.2 -15.5,-16.5 z"
                 sodipodi:nodetypes="ccccccccccsccscccc"
                 inkscape:connector-curvature="0"
                 id="path3645" />
              <path
                 style="fill:#ffffff"
                 d="m 170.2,134.1 c -2,1.3 -0.2,10.3 7.7,8.7 -0.1,4.6 -2.4,10.3 8,9.5 3,-2 0.6,-4.1 -0.6,-6.1 5.3,-6.4 -3,-12.6 -8.1,-10.3 -2.1,-2.1 -5.1,-3.6 -7,-1.8 z"
                 class="st6"
                 sodipodi:nodetypes="cccccc"
                 inkscape:connector-curvature="0"
                 id="path3643" />
            </g>
          </g>
        </g>
        <g
           id="g5173">
          <g
             id="g5169">
            <path
               style="fill:#ffffff"
               d="M 149.1,203.9 V 219 H 164 v 15 h -14.9 v 15.1 H 164 V 264 h -14.9 v 15.2 h 15.2 v -15 h 14.9 v 10.3 c 5.3,-2.6 10.3,-5.8 15.1,-9.6 v -0.8 h 1 c 5,-4.1 9.8,-8.9 14.2,-14.2 v -0.8 h 0.7 c 3.7,-4.6 7.2,-9.7 10.4,-15.1 h -11.1 v -14.9 h 15.1 v 7.6 c 1.3,-2.5 2.5,-5 3.6,-7.7 h -3.6 v -15 h -15.1 v 15 h -15.2 v -15 h -15.1 v 15 h -14.9 v -15 h -15.2 z m 30.1,15.2 h 15.1 V 234 h -15.1 z m -14.9,15 h 14.9 V 249 h -14.9 z m 30,0 h 15.2 V 249 h -15.2 z m -15.1,15 h 15.1 V 264 h -15.1 z"
               class="st6"
               inkscape:connector-curvature="0"
               id="rect2404" />
            <path
               style="fill:#0096e3;stroke:#000000;stroke-linecap:round;stroke-linejoin:round"
               d="m 164.1,203.9 v 15 H 149.2 V 234 h 14.9 v 15 h -14.9 v 15.2 h 14.9 v 15 h 2.7 c 4.3,-1.2 8.5,-2.7 12.5,-4.7 v -10.3 h 15.1 v 0.8 c 0.4,-0.3 0.7,-0.6 1.1,-0.9 h -1.1 v -14.9 h 15.2 v 0.8 c 0.3,-0.3 0.5,-0.6 0.8,-0.9 h -0.8 v -14.9 h 11.1 c 1.4,-2.4 2.8,-4.9 4.1,-7.5 v -7.6 h 3.6 c 2.1,-4.8 4.1,-9.9 5.7,-15.1 h -9.3 v 15 h -15.1 v -15 h -15.2 v 15 h -15.1 v -15 h -15.3 z m 0.2,15.2 h 14.9 V 234 h -14.9 z m 30,0 h 15.2 V 234 h -15.2 z m -15.1,15 h 15.1 V 249 h -15.1 z m -14.9,15 h 14.9 V 264 h -14.9 z"
               class="st7"
               inkscape:connector-curvature="0"
               id="rect2400" />
          </g>
          <g
             id="g4869">
            <path
               style="fill:#0096e3"
               d="m 64.7,204 c 14.6,44.8 46.4,76 83.3,76.7 V 204 Z"
               class="st8"
               inkscape:connector-curvature="0"
               id="rect4120" />
            <path
               style="fill:#ffffff;stroke:#000000"
               d="m 81.5,217.3 c -3.9,-0.1 -7.6,0.7 -11.2,1.4 2.5,5.6 5.2,10.9 8.2,15.8 7.2,-2.4 14.4,-0.8 19.9,0.9 6.7,2 12.1,-0.2 15.9,-2.3 3.7,-2.1 8.4,-2.6 16.4,0.6 5.3,2.1 11.5,1.9 17.2,1.2 v -14.1 c -6.5,0.7 -13,0.5 -18.7,-1.9 -8.2,-3.5 -16.9,0 -20.7,1.3 -3.9,1.4 -7.6,2.9 -18,-1 -3.1,-1.4 -6.1,-1.9 -9,-1.9 z m 15.8,30 c -3.1,-0.1 -6,0.7 -8.9,1.3 4.1,5 8.5,9.5 13.2,13.5 3.4,0.1 6.5,1 9.2,1.9 5.3,1.8 9.7,-0.2 12.7,-2.2 2.9,-1.9 6.7,-2.4 13,0.6 3.6,1.7 7.6,1.7 11.5,1.3 v -13.1 c -4.4,0.3 -8.7,-0.1 -12.6,-2 -6.5,-3.2 -13.4,0 -16.4,1.2 -3.1,1.3 -6.1,2.7 -14.3,-1 -2.7,-1 -5.1,-1.5 -7.4,-1.5 z"
               class="st9"
               inkscape:connector-curvature="0"
               id="path4717" />
          </g>
          <path
             style="fill:#ffffff;stroke:#000000;stroke-linecap:round;stroke-linejoin:round"
             d="m 144,204.1 v 1.1 l 3.3,3.7 v 11 l -3.3,3.7 v 0.9 7.5 0.9 l 3.3,3.7 v 11 l -2.8,3.1 H 144 v 8.4 0.6 h 0.5 l 2.8,3.1 v 11 l -3.3,3.7 v 3.9 c 1.7,0.1 3.4,0.2 5.1,0.2 0.2,0 0.4,0 0.6,0 v -3.1 l 3.4,-3.7 v -0.2 -12.5 -0.2 l -3.4,-3.7 v -6 l 3.4,-3.7 v -0.2 -12.5 -0.2 l -3.4,-3.7 v -7.5 l 3.4,-3.7 v -0.2 -12.5 0 l -3.4,-3.7 v -0.2 z"
             class="st10"
             inkscape:connector-curvature="0"
             id="rect2572" />
        </g>
      </g>
      <g
         id="g5895">
        <path
           style="fill:#ffffff;stroke:#000000"
           d="m 148.8,36.3 c -5.5,3.9 -8.8,9 -8.2,16.2 1.4,6.6 2.9,13.4 -2.9,13.1 -0.6,11.5 5.2,16.2 8.3,23.8 8.3,16.3 1.6,27 -3,38.4 l 8.7,1.5 c 2.7,-10.2 16.3,-9 20.9,-37.3 -3.3,-2.6 -4.9,-5.5 -0.9,-9.4 -4.8,-3 -5.4,-5.2 -2.2,-6.8 -4.3,-1.6 -7,-3.6 -2.9,-7.2 -6.2,0.6 -7.1,-1.4 -4.8,-4.8 -12.8,-4.3 -16.9,-13.6 -13,-27.5 z m 8.2,28.2 c 0.6,0 1.1,0.6 1.1,1.3 0,0.7 -0.5,1.3 -1.1,1.3 -0.6,0 -1.2,-0.6 -1.2,-1.3 0.1,-0.7 0.6,-1.3 1.2,-1.3 z m 4.5,6.5 c 0.6,0 1.1,0.6 1.1,1.3 0,0.7 -0.5,1.3 -1.1,1.3 -0.6,0 -1.2,-0.6 -1.2,-1.3 0,-0.7 0.5,-1.3 1.2,-1.3 z m 2.5,5.3 c 0.1,0 0.1,0 0.2,0 0.6,0 1.1,0.6 1.1,1.3 0,0.7 -0.5,1.3 -1.1,1.3 -0.6,0 -1.2,-0.6 -1.2,-1.3 0.1,-0.6 0.5,-1.1 1,-1.3 z m 2.4,6.7 c 0.6,0 1.1,0.6 1.1,1.3 0,0.7 -0.5,1.3 -1.1,1.3 -0.6,0 -1.2,-0.6 -1.2,-1.3 0,-0.7 0.6,-1.3 1.2,-1.3 z m 1,7.4 c 0.6,0 1.2,0.6 1.2,1.3 0,0.7 -0.5,1.3 -1.2,1.3 -0.6,0 -1.1,-0.6 -1.1,-1.3 0,-0.7 0.5,-1.3 1.1,-1.3 z"
           class="st9"
           inkscape:connector-curvature="0"
           id="path5326" />
        <g
           id="g5322">
          <path
             style="fill:#ffffff;stroke:#000000"
             d="m 146.5,149.6 c -0.5,-2.5 0.7,-5.1 -3.2,-7.2 -5,-3.8 0.8,-5.2 2.9,-7.5 -5.7,-2.9 -8.6,-6.1 -1.9,-10 3.5,0.5 4.9,-2.3 11.4,2.8 0.8,2.8 -0.9,4.4 -4.6,5.2 6.5,2.6 4.6,4.5 2.9,6.5 -5.6,3.7 -2.9,7 -3.7,10.4 z"
             class="st9"
             sodipodi:nodetypes="ccccccccc"
             inkscape:connector-curvature="0"
             id="path5320" />
          <path
             style="fill:#e1261f;stroke:#000000"
             d="m 145.7,148.4 h 5.3 c 3.4,0 3.1,6 1.6,8.9 -1.4,2.9 -1.1,5.2 -0.3,7.2 0.9,2.2 -0.4,4 0,7.5 0.8,6.8 -2.8,14.6 -6.8,15.1 -4,0.5 -6.8,-2.7 -4.1,-6 2.7,-3.3 5.5,-5.5 4.6,-8.4 -1,-2.9 -0.5,-5.1 0.1,-8 0.6,-2.8 0.7,-4.1 -1.3,-7.4 -1.8,-3.2 0.2,-8.9 0.9,-8.9 z"
             class="st11"
             sodipodi:nodetypes="czzzszzzzzz"
             inkscape:connector-curvature="0"
             id="path5318" />
        </g>
      </g>
    </g>
  </g>
</svg>
