<?xml version="1.0" encoding="utf-8"?>
<!-- Generator: Adobe Illustrator 22.0.1, SVG Export Plug-In . SVG Version: 6.00 Build 0)  -->
<svg version="1.1"
	 id="flag-icon-css-ru" inkscape:version="0.92.2 2405546, 2018-03-11" sodipodi:docname="su.svg" xmlns:cc="http://creativecommons.org/ns#" xmlns:dc="http://purl.org/dc/elements/1.1/" xmlns:inkscape="http://www.inkscape.org/namespaces/inkscape" xmlns:rdf="http://www.w3.org/1999/02/22-rdf-syntax-ns#" xmlns:sodipodi="http://sodipodi.sourceforge.net/DTD/sodipodi-0.dtd" xmlns:svg="http://www.w3.org/2000/svg"
	 xmlns="http://www.w3.org/2000/svg" xmlns:xlink="http://www.w3.org/1999/xlink" x="0px" y="0px" viewBox="0 0 640 480"
	 style="enable-background:new 0 0 640 480;" xml:space="preserve">
<style type="text/css">
	.st0{fill:#009543;}
	.st1{fill:#FFFF01;stroke:#000000;stroke-width:2;stroke-linecap:round;stroke-linejoin:round;}
	.st2{fill:#FFFF01;stroke:#000000;stroke-width:1.7379;stroke-linecap:round;stroke-linejoin:round;}
	.st3{fill:#009543;stroke:#000000;stroke-width:1.8914;stroke-linecap:round;stroke-linejoin:round;}
	.st4{fill:#201B17;}
	.st5{fill:#FFFF01;stroke:#000000;}
	.st6{fill:#FFFFFF;}
	.st7{fill:#0096E3;stroke:#000000;stroke-linecap:round;stroke-linejoin:round;}
	.st8{fill:#0096E3;}
	.st9{fill:#FFFFFF;stroke:#000000;}
	.st10{fill:#FFFFFF;stroke:#000000;stroke-linecap:round;stroke-linejoin:round;}
	.st11{fill:#E1261F;stroke:#000000;}
</style>
<sodipodi:namedview  bordercolor="#666666" borderopacity="1" gridtolerance="10" guidetolerance="10" id="namedview11" inkscape:current-layer="flag-icon-css-ru" inkscape:cx="420.70559" inkscape:cy="212.31352" inkscape:pageopacity="0" inkscape:pageshadow="2" inkscape:window-height="840" inkscape:window-maximized="1" inkscape:window-width="1600" inkscape:window-x="0" inkscape:window-y="30" inkscape:zoom="0.98333333" objecttolerance="10" pagecolor="#ffffff" showgrid="false">
	</sodipodi:namedview>
<g id="g19300" transform="matrix(0.45677058,0,0,0.45677058,-20,0.39260532)">
	<g id="layer1" transform="matrix(1,0,0,1.0499944,0,0.00185382)">
		<rect id="rect3635" x="43.8" y="0" class="st0" width="1401.1" height="1000"/>
	</g>
	<g id="g5981" transform="matrix(1.4492249,0,0,1.4021748,533.91048,299.127)">
		<g id="g5973">
			<g id="g5611">
				
					<path id="path5569" inkscape:connector-curvature="0" sodipodi:nodetypes="cccscccccssssssscccccccccccccccccccc" class="st1" d="
					M30.2,168.6c-16.8,1.3-35.1,22.6-8.6,49.4c13.1-2.2,22.8-3.2,18.3-19.2c6.1,18.6-18.1,19.1-18.4,20.6c-2.1,8,4.5,12.7,13.4,14.7
					c-0.2,0,17.9-1,16.2-23.1c2.6,23.6-17.9,20.2-17.6,29c0.2,0.3,0.3,0.6,0.5,1c0,0.1,0,0.2-0.1,0.3c21.1,42.7,56.4,72.9,97.5,79.7
					c0,0,0,0,0.1,0c1.4,0.2,2.9,0.5,4.4,0.7c0,0,0,0,0.1,0c1.5,0.2,2.9,0.3,4.4,0.5c0,0,0.1,0,0.1,0c1.5,0.1,2.9,0.2,4.4,0.3
					c1.6,0.1,3.1,0.1,4.7,0.1c6.1,0,12.1-0.5,17.9-1.5c41.1-6.9,76.4-37.1,97.5-79.7c0.4-1.4-1.4-7.6-1.9-8.5
					c-13-4.2-15.5-11.1-14.3-21.5c-1.5,10.8,1.6,17.3,14.7,22.4c8-2.2,10.6-7.8,11.3-16.7c-10.3,5.3-17.5-7.6-14.6-18.6
					c-3,10.9,4.2,23.8,14.8,18.7c27.8-21,10.3-47.2-6.2-48.5c15.4,6.5,7.8,25-3.1,21c-8.2-5-16.4-10.2-19.7,2.5l-14,17.2
					c-8-3.9-16-7.8-22.4-12.9l-60,0.3l-60-0.3c-6.4,5.1-14.4,8.9-22.4,12.9l-14-17.2c-3.4-12.6-11.6-7.5-19.7-2.5
					C22.4,193.6,14.8,175,30.2,168.6L30.2,168.6z"/>
				
					<path id="text5603" inkscape:connector-curvature="0" inkscape:transform-center-x="0.9185606" inkscape:transform-center-y="67.32898" d="
					M52.5,242.2l2.6-1.3l2.6,5.5l-6.2,3c-0.9-0.2-1.9-0.8-2.8-1.6c-1-0.8-1.7-1.7-2.2-2.7c-0.6-1.3-0.8-2.5-0.7-3.8
					c0.2-1.3,0.7-2.5,1.7-3.6c1-1.1,2.3-2.1,3.9-2.9c1.7-0.8,3.3-1.2,4.8-1.2c1.5,0,2.7,0.3,3.8,0.9c1,0.6,1.9,1.6,2.5,2.8
					c0.7,1.5,0.9,2.9,0.6,4.2c-0.3,1.3-1.2,2.4-2.6,3.4l-1.8-2.3c0.7-0.6,1.1-1.2,1.3-1.9c0.2-0.7,0.1-1.4-0.2-2.1
					c-0.5-1.1-1.4-1.8-2.5-2c-1.2-0.3-2.6,0-4.4,0.8c-1.9,0.9-3.1,1.9-3.7,3.1c-0.5,1-0.6,2.1,0,3.1c0.2,0.5,0.6,1,1.1,1.4
					c0.5,0.4,1,0.8,1.7,1l2-0.9L52.5,242.2L52.5,242.2z M50.8,252.8l14.6-9.1l5.5,8.9l-2.5,1.5l-4-6.5l-3.2,2l3.7,6l-2.5,1.5l-3.7-6
					l-4,2.5l4.2,6.7l-2.5,1.5L50.8,252.8z M57.8,263.9l13.5-10.7l2.6,3.3l-7.6,9.3l10.8-5.3l2.6,3.3l-13.5,10.7l-1.6-2.1l10.6-8.4
					l-12.3,6.2l-1.7-2.1l8.9-10.6l-10.6,8.4L57.8,263.9z M77.2,285.5l-2.2-2.2l1.9-3.6l-4-4l-3.6,2l-2.2-2.1l16-8.4l2.1,2.1
					L77.2,285.5z M78.3,277l3.1-5.9l-5.8,3.2L78.3,277z M78.4,286.5L89,273l2.2,1.7l-4.2,5.3l4.4,3.4l4.2-5.3l2.2,1.8l-10.6,13.5
					l-2.2-1.8l4.6-5.9l-4.4-3.4l-4.6,5.9L78.4,286.5z M94.3,298.1l8.2-15.1l5.3,2.8c1.3,0.7,2.2,1.4,2.7,2c0.4,0.6,0.7,1.3,0.7,2.2
					c0,0.9-0.2,1.8-0.7,2.7c-0.6,1.2-1.4,2-2.4,2.4c-1,0.4-2,0.4-3.2,0.1c0.3,0.7,0.5,1.3,0.6,2c0.1,0.6,0.1,1.7,0.1,3.2l-0.1,3.8
					l-3-1.6l0-4.3c0-1.5-0.1-2.5-0.1-3c-0.1-0.4-0.2-0.8-0.4-1c-0.2-0.3-0.6-0.5-1.2-0.8l-0.5-0.3l-3.4,6.3L94.3,298.1z
					 M101.5,290.7l1.9,1c1.1,0.6,1.9,1,2.2,1c0.4,0.1,0.7,0,1.1-0.2c0.4-0.2,0.7-0.5,0.9-1.1c0.3-0.5,0.4-0.9,0.3-1.3
					c0-0.4-0.2-0.7-0.5-1c-0.2-0.2-0.8-0.6-2-1.2l-2-1.1L101.5,290.7z M106.9,304.5l6.8-15.8l2.6,1.1l-6.8,15.8L106.9,304.5z
					 M112,306.8l5.4-16.3l4.3,1.4c1.6,0.5,2.6,1,3.1,1.3c0.7,0.5,1.2,1.3,1.4,2.3c0.2,1,0.1,2.1-0.3,3.4c-0.4,1.2-0.9,2.1-1.7,2.7
					c-0.7,0.6-1.5,1-2.2,1.1c-0.8,0.1-2-0.1-3.6-0.7l-1.8-0.6l-2,6.1L112,306.8z M119.2,294.1l-1.5,4.6l1.5,0.5
					c1,0.3,1.7,0.5,2.1,0.5c0.4,0,0.8-0.2,1.1-0.5c0.4-0.3,0.6-0.7,0.8-1.2c0.2-0.5,0.2-1,0.1-1.5c-0.1-0.4-0.3-0.8-0.6-1
					c-0.3-0.2-1-0.6-2.1-0.9L119.2,294.1L119.2,294.1z M137,313.2l-3-0.6l-0.5-4.1l-5.5-1.1l-1.9,3.6l-3-0.6l8.6-15.8l3,0.6
					L137,313.2z M133.1,305.5l-0.7-6.6l-3.1,5.9L133.1,305.5z M138.5,313.3l0.9-17.2l2.8,0.1l-0.4,6.8l5.6,0.3l0.4-6.8l2.8,0.1
					l-0.9,17.2l-2.8-0.1l0.4-7.5l-5.6-0.3l-0.4,7.5L138.5,313.3z M158.2,313.5l-2.5-17l5.9-0.9c1.5-0.2,2.6-0.2,3.3,0
					c0.7,0.2,1.3,0.7,1.8,1.4c0.5,0.7,0.9,1.6,1,2.6c0.2,1.3,0,2.4-0.5,3.4c-0.5,0.9-1.3,1.6-2.5,1.9c0.7,0.3,1.2,0.7,1.7,1.2
					c0.5,0.5,1.1,1.3,2,2.5l2.2,3.1l-3.4,0.5l-2.6-3.4c-0.9-1.2-1.6-2-1.9-2.3c-0.3-0.3-0.6-0.5-0.9-0.6c-0.3-0.1-0.8-0.1-1.4,0
					l-0.6,0.1l1.1,7.1L158.2,313.5z M159.5,303.3l2.1-0.3c1.3-0.2,2.1-0.4,2.4-0.5c0.3-0.2,0.6-0.4,0.7-0.8c0.2-0.4,0.2-0.8,0.1-1.4
					c-0.1-0.5-0.3-1-0.5-1.3c-0.3-0.3-0.6-0.5-1-0.5c-0.3,0-1,0-2.3,0.2l-2.2,0.3L159.5,303.3L159.5,303.3z M172.2,311.2l-4.8-16.5
					l10-2.9l0.8,2.8l-7.3,2.1l1.1,3.7l6.8-2l0.8,2.8l-6.8,2l1.3,4.5l7.6-2.2l0.8,2.8L172.2,311.2z M184.7,307.3l-6.7-15.8l4.2-1.8
					c1.6-0.7,2.6-1,3.2-1.1c0.9-0.1,1.7,0.2,2.6,0.8c0.8,0.6,1.5,1.5,2.1,2.8c0.5,1.1,0.7,2.2,0.6,3.1c-0.1,1-0.4,1.7-0.9,2.3
					c-0.5,0.6-1.6,1.2-3.1,1.9l-1.7,0.7l2.5,6L184.7,307.3z M181.8,293.1l1.9,4.5l1.4-0.6c1-0.4,1.6-0.8,1.9-1
					c0.3-0.3,0.5-0.7,0.5-1.1c0.1-0.5,0-0.9-0.2-1.5c-0.2-0.5-0.5-0.9-0.9-1.2c-0.4-0.3-0.8-0.4-1.2-0.4c-0.4,0-1.1,0.3-2.2,0.7
					L181.8,293.1z M196.8,302l-8.5-14.9l9.1-5.2l1.4,2.5l-6.6,3.8l1.9,3.3l6.2-3.5l1.4,2.5l-6.2,3.5l2.3,4.1l6.8-3.9l1.4,2.5
					L196.8,302z M208.1,295.4L198,281.6l2.3-1.7l4,5.5l4.5-3.3l-4-5.5l2.3-1.7l10.1,13.9l-2.3,1.7l-4.4-6.1l-4.5,3.3l4.4,6.1
					L208.1,295.4z M223.6,283.3l-12.2-12.1l4.2-4.2c1.1-1.1,2-1.8,2.6-2c0.7-0.2,1.4-0.3,2.3,0c0.8,0.2,1.6,0.7,2.4,1.5
					c1,0.9,1.5,1.9,1.6,3c0.1,1-0.2,2-0.8,3c0.7-0.1,1.4-0.1,2.1-0.1s1.7,0.4,3.1,0.8l3.6,1.1l-2.4,2.4l-4.1-1.2
					c-1.5-0.4-2.4-0.7-2.9-0.7c-0.4-0.1-0.8,0-1.1,0.1c-0.3,0.1-0.7,0.4-1.1,0.9l-0.4,0.4l5.1,5.1L223.6,283.3L223.6,283.3z
					 M218.6,274.3l1.5-1.5c0.9-0.9,1.4-1.5,1.6-1.9s0.2-0.7,0.1-1.1c-0.1-0.4-0.3-0.8-0.7-1.2c-0.4-0.4-0.8-0.6-1.2-0.7
					c-0.4-0.1-0.8,0-1.1,0.1c-0.2,0.1-0.8,0.6-1.7,1.5l-1.6,1.6L218.6,274.3L218.6,274.3z M241.4,263.1l-1.9,2.4l-3.8-1.5l-3.5,4.4
					l2.3,3.3l-1.9,2.4l-10.1-15l1.9-2.4L241.4,263.1z M232.8,263l-6.2-2.4l3.8,5.5L232.8,263z M242.2,261.8l-14.5-9.2l2.4-3.9
					c0.9-1.4,1.6-2.3,2-2.7c0.7-0.6,1.5-0.8,2.5-0.8c1,0,2.1,0.4,3.3,1.1c1.1,0.7,1.8,1.4,2.3,2.3c0.5,0.8,0.6,1.7,0.6,2.4
					c-0.1,0.8-0.6,1.9-1.5,3.3l-1,1.6l5.5,3.5L242.2,261.8z M231.6,251.8l4.1,2.6l0.8-1.3c0.6-0.9,0.9-1.5,1-1.9
					c0.1-0.4,0-0.8-0.2-1.2c-0.2-0.4-0.5-0.8-1-1.1c-0.5-0.3-1-0.5-1.4-0.5c-0.5,0-0.8,0.1-1.2,0.4c-0.3,0.2-0.8,0.9-1.4,1.9
					L231.6,251.8z M248.9,250.7l-15.2-8.1l1.3-2.5l15.2,8.1L248.9,250.7z M251.6,245.8l-15.8-6.8l1.1-2.6l6.2,2.7l2.2-5.1l-6.2-2.7
					l1.1-2.6l15.8,6.8l-1.1,2.6l-6.9-3l-2.2,5.1l6.9,3L251.6,245.8z"/>
			</g>
			<g id="g5156">
				<ellipse id="path3761" class="st2" cx="149.1" cy="148.8" rx="101.2" ry="140.7"/>
				<ellipse id="path3759" class="st3" cx="149.1" cy="149.8" rx="92.9" ry="131.8"/>
			</g>
		</g>
		<g id="g5901">
			<g id="g5182">
				<path id="rect2554" inkscape:connector-curvature="0" sodipodi:nodetypes="ccccccccccc" class="st4" d="M135,165.1l-13.5,27.3
					l-7-11.1H83.6l-18.2,22.6h167.7l-16.4-20.1h-30.8l-6.9,7.7l-13.1-26.4H135z"/>
				<g id="g3766">
					<g id="g3622" transform="translate(-0.1532324)">
						
							<path id="path2627" inkscape:connector-curvature="0" sodipodi:nodetypes="cccsssssssccsssssscccccccccccccccccccccccccccccccccccccccc" d="
							M114.5,49.3c-5.4,0.5-6.3,7.4-10.3,9.3c-1.5-0.2-2.1,0.7-2.6,1.8c-0.1-0.3-0.1-0.5-0.2-0.8c0,0,0,0,0,0c0,0,0,0,0,0
							c0-0.1,0.1-0.1,0.1-0.2c0-0.1,0.1-0.2,0.1-0.2c0,0,0-0.1,0-0.1c0,0,0,0,0,0c0,0,0-0.1,0-0.1l-1-0.2c0,0,0,0,0-0.1
							c0,0,0,0,0,0.1c0,0.1-0.1,0.2-0.1,0.3c0,0.1-0.1,0.2-0.1,0.3c0,0.1-0.1,0.1-0.1,0.3c0,0.6,0.2,1.3,0.4,1.8
							c0.1,0.2,0.1,0.4,0.2,0.6c-0.3,0.9-0.6,1.7-1.1,2.4c-1.6,3.1-3.5,6-4.8,9.2c-4.1,0.3-1.6,5.3-2.5,8.4c1.1,4.3-3.6,6.7-2.6,11
							c0.2,3.9,3.5,7.2,3,11c0.2,3.1-3.1,5.1,0.5,6.9c2.9,3.1,3.6,7.3,3.9,11.3c0,0-2.2,2,0.2,2.2c3.3,1.9,5.9,5.2,7.3,8.3
							c0.8,1.9,3.8,4.2,0,2.7c-2.3,0.3-0.4,3.2,1.8,2.5c4,1.1,7.7,3,10.3,6.2c1.5,1.2,3.3,2.3,0.2,2.1c-2.4,3,4,1.3,6,2.2
							c2.5,0.7,6.5,1.7,5.4,3.7c1.6,2,4.6-2.1,7.1,0.3c1.7,1.1,7.5,3.8,5.6,0.4c-3-2.2-7.4-3.1-10.5-3.3c-2-1.5-1.9-3.8-3.6-5.3
							c-1.9,1.6,1.1,4.8-2.3,2.7c-3.9-0.3-5.2-3.6-8.5-6.3c-0.2-1.6-1.5-4-2.7-2.4c-2.7,0.2-7-3.9-8.1-7.4c-1.3-1.6,1.5-7.7-1.3-5.3
							c-0.5,2.2-0.5,3.2-2,0.8c-3.8-2.3-4.4-6.8-3.3-10.7c1.9-1.9-0.7-4.6-1.2-1.3c-0.5,0.2-2.7-4.2-3.7-5.5c-1.1-3.3,2-5.6,1.3-8.3
							c-2.5,0-2.9-5.1-3.9-7.8c-2.1-3.7,5.4-5.8,2.8-8.2c-0.5-0.6-0.3-7.3,0.4-8.5c0.5-2.7,8.7-4.2,6.6-6.9
							c-1.4,0.3-6.6,5.2-3.9,1.5c1.9-2.5,3-5.7,4.6-8.3c0.6-0.9,1.6-2.2,2.6-3.1c1.5,0,8.9-1.6,4.9-2c-3.2,0.5,0.2-3.4,1.1-4.9
							C111.3,50.8,115.4,51.1,114.5,49.3L114.5,49.3z"/>
						<g id="g3598">
							<path id="path2593" inkscape:connector-curvature="0" sodipodi:nodetypes="czczc" class="st5" d="M135,39.7
								c-7,4.3-8.3,0.5-13.5,1.7c-5.2,1.1-6.4,4.5-7.7,8.1c6.6,2.1,7.8,2.1,10.9-0.5C127.9,46.5,131.9,42.8,135,39.7z"/>
							<path id="path2595" inkscape:connector-curvature="0" sodipodi:nodetypes="czczc" class="st5" d="M112.1,39
								c-4.7,6.8-1.6,7.8-3,12.9s-4.9,6.1-8.5,7.2c-1.8-6.7-1.7-7.8,1-10.8C104.3,45.3,108.8,41.9,112.1,39z"/>
							<path id="path2597" inkscape:connector-curvature="0" sodipodi:nodetypes="czczc" class="st5" d="M94.4,51.3
								c-1.4,8.1,2.6,7.9,3.5,13.1c0.9,5.2-1.8,7.6-4.7,10.1c-4.5-5.3-4.8-6.4-3.7-10.3C90.8,60.5,92.7,55.3,94.4,51.3z"/>
							<path id="path2599" inkscape:connector-curvature="0" sodipodi:nodetypes="czczc" class="st5" d="M85.3,68.9
								c0.6,8.2,4.4,7,6.5,11.9c2.1,4.9,0.1,7.8-2.1,11c-5.6-4.1-6.2-5.1-6-9.1C84,78.7,84.6,73.2,85.3,68.9z"/>
							<path id="path2601" inkscape:connector-curvature="0" sodipodi:nodetypes="czczc" class="st5" d="M79.9,88.8
								c3.2,7.6,6.4,5.3,10,9.2c3.5,4,2.5,7.4,1.5,11.1c-6.6-2.1-7.5-2.8-8.6-6.7C81.7,98.5,80.5,93.1,79.9,88.8z"/>
							<path id="path2603" inkscape:connector-curvature="0" sodipodi:nodetypes="czczc" class="st5" d="M80.5,107.9
								c4.9,6.6,7.5,3.6,11.9,6.5c4.4,3,4.3,6.6,4.1,10.4c-6.9-0.4-8-0.9-9.9-4.4C84.6,116.9,82.2,112,80.5,107.9z"/>
							<path id="path2605" inkscape:connector-curvature="0" sodipodi:nodetypes="czczc" class="st5" d="M84.7,125.8
								c6.7,4.8,8.2,1.1,13.3,2.6c5.1,1.5,6.1,4.9,7.1,8.6c-6.7,1.7-7.9,1.5-10.8-1.2C91.4,133.1,87.6,129.1,84.7,125.8z"/>
							<path id="path2607" inkscape:connector-curvature="0" sodipodi:nodetypes="czczc" class="st5" d="M95.6,142.4
								c7.7,2.8,8.2-1.2,13.5-1.1c5.3,0.1,7.2,3.1,9.2,6.4c-6,3.4-7.2,3.6-10.7,1.8C103.9,147.6,99.2,144.8,95.6,142.4z"/>
							<path id="path2609" inkscape:connector-curvature="0" sodipodi:nodetypes="czczc" class="st5" d="M106.4,154.6
								c8.2,0,7.4-3.9,12.4-5.6c5-1.7,7.8,0.5,10.8,2.9c-4.5,5.3-5.5,5.8-9.5,5.3C116,156.7,110.6,155.6,106.4,154.6z"/>
							<path id="path2611" inkscape:connector-curvature="0" sodipodi:nodetypes="czczc" class="st5" d="M116.6,127.3
								c5.1,6.4,1.5,8.2,3.3,13.2c1.8,5,5.3,5.8,9,6.6c1.3-6.8,1.1-7.9-1.8-10.7C124.2,133.5,120,129.9,116.6,127.3z"/>
							<path id="path2613" inkscape:connector-curvature="0" sodipodi:nodetypes="czczc" class="st5" d="M107,117.8
								c3.9,7.2,0,8.3,0.8,13.6c0.8,5.2,4.1,6.6,7.6,8.2c2.5-6.5,2.5-7.6,0.2-10.9C113.4,125.4,109.9,121.1,107,117.8z"/>
							<path id="path2615" inkscape:connector-curvature="0" sodipodi:nodetypes="czczc" class="st5" d="M103,104.5
								c1.5,8.1-2.5,7.9-3.2,13.2c-0.8,5.3,1.9,7.6,4.8,10.1c4.4-5.4,4.7-6.5,3.5-10.3C106.8,113.6,104.8,108.5,103,104.5z"/>
							<path id="path2617" inkscape:connector-curvature="0" sodipodi:nodetypes="czczc" class="st5" d="M103.8,91.9
								c-1.2,8.1-4.9,6.7-7.4,11.4c-2.5,4.7-0.7,7.8,1.3,11.1c5.9-3.7,6.6-4.6,6.7-8.6C104.4,101.8,104.2,96.3,103.8,91.9z"/>
							<path id="path2619" inkscape:connector-curvature="0" sodipodi:nodetypes="czczc" class="st5" d="M106,80.5
								c-3.2,7.6-6.4,5.3-10,9.2c-3.5,3.9-2.5,7.4-1.5,11.1c6.6-2.1,7.5-2.8,8.6-6.7C104.2,90.2,105.3,84.8,106,80.5z"/>
							<path id="path2621" inkscape:connector-curvature="0" sodipodi:nodetypes="czczc" class="st5" d="M112.1,69.9
								c-5.6,6-7.8,2.8-12.5,5.3c-4.7,2.5-4.9,6.1-5.2,9.9c6.9,0.3,8-0.1,10.3-3.4C107.1,78.4,110,73.7,112.1,69.9z"/>
							<path id="path2623" inkscape:connector-curvature="0" sodipodi:nodetypes="czczc" class="st5" d="M120.5,59
								c-6.5,5-8.2,1.4-13.2,3c-5,1.7-5.9,5.1-6.8,8.8c6.8,1.5,7.9,1.3,10.8-1.5C114.1,66.5,117.8,62.4,120.5,59z"/>
							<path id="path2625" inkscape:connector-curvature="0" sodipodi:nodetypes="czczc" class="st5" d="M132.1,52.8
								c-7.7,2.8-8.2-1.2-13.5-1.1c-5.3,0.1-7.2,3.1-9.1,6.4c6,3.4,7.2,3.6,10.7,1.8C123.7,58,128.5,55.2,132.1,52.8z"/>
						</g>
					</g>
					<g id="g3724">
						<g id="g3718" transform="matrix(-0.3907305,-0.5396007,0.5396007,-0.3907305,163.28569,193.82963)">
							<path id="path3720" inkscape:connector-curvature="0" sodipodi:nodetypes="ccccccccccsccscccc" d="M169.8,136.1
								c-0.2,2-0.2,4-3.5,7.7c-0.8,1.9-1.7,3.5,0.5,7c-0.1,0.1-0.3,0.2-0.4,0.2c-1,0.4-1.9,0.6-3,0.7c-1.3-0.2-2.6,0.1-3.7,0.9
								c-1.1,0.6-2.1,1.7-2.4,3l0.1-0.2l0.1-0.1c0.1-0.1,0.2-0.3,0.4-0.5c-0.1,0.1-0.1,0,0.2-0.4c0.4-0.5,0.1,0-0.2,0.4
								c0.2-0.1,0.8-0.6,1.1-0.8c0.8-0.6,1.7-1.1,2.7-1c1.1,0.1,2.2-0.1,3.3-0.2c0.8,0,1.6-0.6,2.3-1.1c9.8,8.1,12.8-0.2,17.9,0.9
								C183.2,143.4,177.6,138.4,169.8,136.1z"/>
							<path id="path3722" inkscape:connector-curvature="0" sodipodi:nodetypes="cccccc" class="st6" d="M170.2,134.1
								c-2,1.3-0.2,10.3,7.7,8.7c-0.1,4.6-2.4,10.3,8,9.5c3-2,0.6-4.1-0.6-6.1c5.3-6.4-3-12.6-8.1-10.3
								C175.1,133.8,172.1,132.3,170.2,134.1z"/>
						</g>
						<g id="g3712" transform="matrix(-0.2002203,-0.7356854,0.7356854,-0.2002203,111.39063,205.66806)">
							<path id="path3714" inkscape:connector-curvature="0" sodipodi:nodetypes="ccccccccccsccscccc" d="M169.8,136.1
								c-0.2,2-0.2,4-3.5,7.7c-0.8,1.9-1.7,3.5,0.5,7c-0.1,0.1-0.3,0.2-0.4,0.2c-1,0.4-1.9,0.6-3,0.7c-1.3-0.2-2.6,0.1-3.7,0.9
								c-1.1,0.6-2.1,1.7-2.4,3l0.1-0.2l0.1-0.1c0.1-0.1,0.2-0.3,0.4-0.5c-0.1,0.1-0.1,0,0.2-0.4c0.4-0.5,0.1,0-0.2,0.4
								c0.2-0.1,0.8-0.6,1.1-0.8c0.8-0.6,1.7-1.1,2.8-1c1.1,0.1,2.2-0.1,3.3-0.2c0.8,0,1.6-0.6,2.3-1.1c9.8,8.1,12.8-0.2,17.9,0.9
								C183.2,143.4,177.6,138.4,169.8,136.1z"/>
							<path id="path3716" inkscape:connector-curvature="0" sodipodi:nodetypes="cccccc" class="st6" d="M170.2,134.1
								c-2,1.3-0.2,10.3,7.7,8.7c-0.1,4.6-2.4,10.3,8,9.5c3-2,0.6-4.1-0.6-6.1c5.3-6.4-3-12.6-8.1-10.3
								C175.1,133.8,172.1,132.3,170.2,134.1z"/>
						</g>
						<g id="g3706" transform="matrix(-0.01813293,-0.7624907,0.7624907,-0.01813293,84.868754,190.88333)">
							<path id="path3708" inkscape:connector-curvature="0" sodipodi:nodetypes="ccccccccccsccscccc" d="M169.8,136.1
								c-0.2,2-0.2,4-3.5,7.7c-0.8,1.9-1.7,3.5,0.5,7c-0.1,0.1-0.3,0.2-0.4,0.2c-1,0.4-1.9,0.6-3,0.7c-1.3-0.2-2.6,0.1-3.7,0.9
								c-1.1,0.6-2.1,1.7-2.4,3l0.1-0.2l0.1-0.1c0.1-0.1,0.2-0.3,0.4-0.5c-0.1,0.1-0.1,0,0.2-0.4c0.4-0.5,0.1,0-0.2,0.4
								c0.2-0.1,0.8-0.6,1.1-0.8c0.8-0.6,1.7-1.1,2.8-1c1.1,0.1,2.2-0.1,3.3-0.2c0.8,0,1.6-0.6,2.3-1.1c9.8,8.1,12.8-0.2,17.9,0.9
								C183.2,143.4,177.6,138.4,169.8,136.1z"/>
							<path id="path3710" inkscape:connector-curvature="0" sodipodi:nodetypes="cccccc" class="st6" d="M170.2,134.1
								c-2,1.3-0.2,10.3,7.7,8.7c-0.1,4.6-2.4,10.3,8,9.5c3-2,0.6-4.1-0.6-6.1c5.3-6.4-3-12.6-8.1-10.3
								C175.1,133.8,172.1,132.3,170.2,134.1z"/>
						</g>
						<g id="g3700" transform="matrix(0.1369728,-0.8106243,0.8106243,0.1369728,57.584476,187.37416)">
							<path id="path3702" inkscape:connector-curvature="0" sodipodi:nodetypes="ccccccccccsccscccc" d="M169.8,136.1
								c-0.2,2-0.2,4-3.5,7.7c-0.8,1.9-1.7,3.5,0.5,7c-0.1,0.1-0.3,0.2-0.4,0.2c-1,0.4-1.9,0.6-3,0.7c-1.3-0.2-2.6,0.1-3.7,0.9
								c-1.1,0.6-2.1,1.7-2.4,3l0.1-0.2l0.1-0.1c0.1-0.1,0.2-0.3,0.4-0.5c-0.1,0.1-0.1,0,0.2-0.4c0.4-0.5,0.1,0-0.2,0.4
								c0.2-0.1,0.8-0.6,1.1-0.8c0.8-0.6,1.7-1.1,2.7-1c1.1,0.1,2.2-0.1,3.3-0.2c0.8,0,1.6-0.6,2.3-1.1c9.8,8.1,12.8-0.2,17.9,0.9
								C183.2,143.4,177.6,138.4,169.8,136.1z"/>
							<path id="path3704" inkscape:connector-curvature="0" sodipodi:nodetypes="cccccc" class="st6" d="M170.2,134.1
								c-2,1.3-0.2,10.3,7.7,8.7c-0.1,4.6-2.4,10.3,8,9.5c3-2,0.6-4.1-0.6-6.1c5.3-6.4-3-12.6-8.1-10.3
								C175.1,133.8,172.1,132.3,170.2,134.1z"/>
						</g>
						<g id="g3694" transform="matrix(0.3280461,-0.7538296,0.7538296,0.3280461,37.3971,160.50457)">
							<path id="path3696" inkscape:connector-curvature="0" sodipodi:nodetypes="ccccccccccsccscccc" d="M169.8,136.1
								c-0.2,2-0.2,4-3.5,7.7c-0.8,1.9-1.7,3.5,0.5,7c-0.1,0.1-0.3,0.2-0.4,0.2c-1,0.4-1.9,0.6-3,0.7c-1.3-0.2-2.6,0.1-3.7,0.9
								c-1.1,0.6-2.1,1.7-2.4,3l0.1-0.2l0.1-0.1c0.1-0.1,0.2-0.3,0.4-0.5c-0.1,0.1-0.1,0,0.2-0.4c0.4-0.5,0.1,0-0.2,0.4
								c0.2-0.1,0.8-0.6,1.1-0.8c0.8-0.6,1.7-1.1,2.8-1c1.1,0.1,2.2-0.1,3.2-0.2c0.8,0,1.6-0.6,2.3-1.1c9.8,8.1,12.8-0.2,17.9,0.9
								C183.2,143.4,177.6,138.4,169.8,136.1z"/>
							<path id="path3698" inkscape:connector-curvature="0" sodipodi:nodetypes="cccccc" class="st6" d="M170.2,134.1
								c-2,1.3-0.2,10.3,7.7,8.7c-0.1,4.6-2.4,10.3,8,9.5c3-2,0.6-4.1-0.6-6.1c5.3-6.4-3-12.6-8.1-10.3
								C175.1,133.8,172.1,132.3,170.2,134.1z"/>
						</g>
						<g id="g3682" transform="matrix(0.4556987,-0.8035068,0.8035068,0.4556987,9.0754286,163.91555)">
							<path id="path3684" inkscape:connector-curvature="0" sodipodi:nodetypes="ccccccccccsccscccc" d="M169.8,136.1
								c-0.2,2-0.2,4-3.5,7.7c-0.8,1.9-1.7,3.5,0.5,7c-0.1,0.1-0.3,0.2-0.4,0.2c-1,0.4-1.9,0.6-3,0.7c-1.3-0.2-2.6,0.1-3.7,0.9
								c-1.1,0.6-2.1,1.7-2.4,3l0.1-0.2l0.1-0.1c0.1-0.1,0.2-0.3,0.4-0.5c-0.1,0.1-0.1,0,0.2-0.4c0.4-0.5,0.1,0-0.2,0.4
								c0.2-0.1,0.8-0.6,1.1-0.8c0.8-0.6,1.7-1.1,2.8-1c1.1,0.1,2.2-0.1,3.3-0.2c0.8,0,1.6-0.6,2.3-1.1c9.8,8.1,12.8-0.2,17.9,0.9
								C183.2,143.4,177.6,138.4,169.8,136.1z"/>
							<path id="path3686" inkscape:connector-curvature="0" sodipodi:nodetypes="cccccc" class="st6" d="M170.2,134.1
								c-2,1.3-0.2,10.3,7.7,8.7c-0.1,4.6-2.4,10.3,8,9.5c3-2,0.6-4.1-0.6-6.1c5.3-6.4-3-12.6-8.1-10.3
								C175.1,133.8,172.1,132.3,170.2,134.1z"/>
						</g>
						<g id="g3676" transform="matrix(0.6719192,-0.6338842,0.6338842,0.6719192,-4.1798567,116.18578)">
							<path id="path3678" inkscape:connector-curvature="0" sodipodi:nodetypes="ccccccccccsccscccc" d="M169.8,136.1
								c-0.2,2-0.2,4-3.5,7.7c-0.8,1.9-1.7,3.5,0.5,7c-0.1,0.1-0.3,0.2-0.4,0.2c-1,0.4-1.9,0.6-3,0.7c-1.3-0.2-2.6,0.1-3.7,0.9
								c-1.1,0.6-2.1,1.7-2.4,3l0.1-0.2l0.1-0.1c0.1-0.1,0.2-0.3,0.4-0.5c-0.1,0.1-0.1,0,0.2-0.4c0.4-0.5,0.1,0-0.2,0.4
								c0.2-0.1,0.8-0.6,1.1-0.8c0.8-0.6,1.7-1.1,2.8-1c1.1,0.1,2.2-0.1,3.3-0.2c0.8,0,1.6-0.6,2.3-1.1c9.8,8.1,12.8-0.2,17.9,0.9
								C183.2,143.4,177.6,138.4,169.8,136.1z"/>
							<path id="path3680" inkscape:connector-curvature="0" sodipodi:nodetypes="cccccc" class="st6" d="M170.2,134.1
								c-2,1.3-0.2,10.3,7.7,8.7c-0.1,4.6-2.4,10.3,8,9.5c3-2,0.6-4.1-0.6-6.1c5.3-6.4-3-12.6-8.1-10.3
								C175.1,133.8,172.1,132.3,170.2,134.1z"/>
						</g>
						<g id="g3670" transform="matrix(0.7841165,-0.4883092,0.4883092,0.7841165,-5.5593944,88.072608)">
							<path id="path3672" inkscape:connector-curvature="0" sodipodi:nodetypes="ccccccccccsccscccc" d="M169.8,136.1
								c-0.2,2-0.2,4-3.5,7.7c-0.8,1.9-1.7,3.5,0.5,7c-0.1,0.1-0.3,0.2-0.4,0.2c-1,0.4-1.9,0.6-3,0.7c-1.3-0.2-2.6,0.1-3.7,0.9
								c-1.1,0.6-2.1,1.7-2.4,3l0.1-0.2l0.1-0.1c0.1-0.1,0.2-0.3,0.4-0.5c-0.1,0.1-0.1,0,0.2-0.4c0.4-0.5,0.1,0-0.2,0.4
								c0.2-0.1,0.8-0.6,1.1-0.8c0.8-0.6,1.7-1.1,2.7-1c1.1,0.1,2.2-0.1,3.3-0.2c0.8,0,1.6-0.6,2.3-1.1c9.8,8.1,12.8-0.2,17.9,0.9
								C183.2,143.4,177.6,138.4,169.8,136.1z"/>
							<path id="path3674" inkscape:connector-curvature="0" sodipodi:nodetypes="cccccc" class="st6" d="M170.2,134.1
								c-2,1.3-0.2,10.3,7.7,8.7c-0.1,4.6-2.4,10.3,8,9.5c3-2,0.6-4.1-0.6-6.1c5.3-6.4-3-12.6-8.1-10.3
								C175.1,133.8,172.1,132.3,170.2,134.1z"/>
						</g>
						<g id="g3664" transform="matrix(0.8958988,-0.2250555,0.2250555,0.8958988,5.9226641,37.490389)">
							<path id="path3666" inkscape:connector-curvature="0" sodipodi:nodetypes="ccccccccccsccscccc" d="M169.8,136.1
								c-0.2,2-0.2,4-3.5,7.7c-0.8,1.9-1.7,3.5,0.5,7c-0.1,0.1-0.3,0.2-0.4,0.2c-1,0.4-1.9,0.6-3,0.7c-1.3-0.2-2.6,0.1-3.7,0.9
								c-1.1,0.6-2.1,1.7-2.4,3l0.1-0.2l0.1-0.1c0.1-0.1,0.2-0.3,0.4-0.5c-0.1,0.1-0.1,0,0.2-0.4c0.4-0.5,0.1,0-0.2,0.4
								c0.2-0.1,0.8-0.6,1.1-0.8c0.8-0.6,1.7-1.1,2.7-1c1.1,0.1,2.2-0.1,3.3-0.2c0.8,0,1.6-0.6,2.3-1.1c9.8,8.1,12.8-0.2,17.9,0.9
								C183.2,143.4,177.6,138.4,169.8,136.1z"/>
							<path id="path3668" inkscape:connector-curvature="0" sodipodi:nodetypes="cccccc" class="st6" d="M170.2,134.1
								c-2,1.3-0.2,10.3,7.7,8.7c-0.1,4.6-2.4,10.3,8,9.5c3-2,0.6-4.1-0.6-6.1c5.3-6.4-3-12.6-8.1-10.3
								C175.1,133.8,172.1,132.3,170.2,134.1z"/>
						</g>
						<g id="g3658" transform="matrix(0.9206122,-0.07588105,0.07588105,0.9206122,14.062055,17.216794)">
							<path id="path3660" inkscape:connector-curvature="0" sodipodi:nodetypes="ccccccccccsccscccc" d="M169.8,136.1
								c-0.2,2-0.2,4-3.5,7.7c-0.8,1.9-1.7,3.5,0.5,7c-0.1,0.1-0.3,0.2-0.4,0.2c-1,0.4-1.9,0.6-3,0.7c-1.3-0.2-2.6,0.1-3.7,0.9
								c-1.1,0.6-2.1,1.7-2.4,3l0.1-0.2l0.1-0.1c0.1-0.1,0.2-0.3,0.4-0.5c-0.1,0.1-0.1,0,0.2-0.4c0.4-0.5,0.1,0-0.2,0.4
								c0.2-0.1,0.8-0.6,1.1-0.8c0.8-0.6,1.7-1.1,2.8-1c1.1,0.1,2.2-0.1,3.3-0.2c0.8,0,1.6-0.6,2.3-1.1c9.8,8.1,12.8-0.2,17.9,0.9
								C183.2,143.4,177.6,138.4,169.8,136.1z"/>
							<path id="path3662" inkscape:connector-curvature="0" sodipodi:nodetypes="cccccc" class="st6" d="M170.2,134.1
								c-2,1.3-0.2,10.3,7.7,8.7c-0.1,4.6-2.4,10.3,8,9.5c3-2,0.6-4.1-0.6-6.1c5.3-6.4-3-12.6-8.1-10.3
								C175.1,133.8,172.1,132.3,170.2,134.1z"/>
						</g>
						<g id="g3654">
							<path id="path3645" inkscape:connector-curvature="0" sodipodi:nodetypes="ccccccccccsccscccc" d="M169.8,136.1
								c-0.2,2-0.2,4-3.5,7.7c-0.8,1.9-1.7,3.5,0.5,7c-0.1,0.1-0.3,0.2-0.4,0.2c-1,0.4-1.9,0.6-3,0.7c-1.3-0.2-2.6,0.1-3.7,0.9
								c-1.1,0.6-2.1,1.7-2.4,3l0.1-0.2l0.1-0.1c0.1-0.1,0.2-0.3,0.4-0.5c-0.1,0.1-0.1,0,0.2-0.4c0.4-0.5,0.1,0-0.2,0.4
								c0.2-0.1,0.8-0.6,1.1-0.8c0.8-0.6,1.7-1.1,2.8-1c1.1,0.1,2.2-0.1,3.3-0.2c0.8,0,1.6-0.6,2.3-1.1c9.8,8.1,12.8-0.2,17.9,0.9
								C183.2,143.4,177.6,138.4,169.8,136.1z"/>
							<path id="path3643" inkscape:connector-curvature="0" sodipodi:nodetypes="cccccc" class="st6" d="M170.2,134.1
								c-2,1.3-0.2,10.3,7.7,8.7c-0.1,4.6-2.4,10.3,8,9.5c3-2,0.6-4.1-0.6-6.1c5.3-6.4-3-12.6-8.1-10.3
								C175.1,133.8,172.1,132.3,170.2,134.1z"/>
						</g>
					</g>
				</g>
				<g id="g5173">
					<g id="g5169">
						<path id="rect2404" inkscape:connector-curvature="0" class="st6" d="M149.1,203.9v15.1h14.9V234h-14.9v15.1h14.9v14.9h-14.9
							v15.2h15.2v-15h14.9v10.3c5.3-2.6,10.3-5.8,15.1-9.6v-0.8h1c5-4.1,9.8-8.9,14.2-14.2v-0.8h0.7c3.7-4.6,7.2-9.7,10.4-15.1
							h-11.1v-14.9h15.1v7.6c1.3-2.5,2.5-5,3.6-7.7h-3.6v-15h-15.1v15h-15.2v-15h-15.1v15h-14.9v-15H149.1z M179.2,219.1h15.1V234
							h-15.1V219.1z M164.3,234.1h14.9V249h-14.9V234.1z M194.3,234.1h15.2V249h-15.2V234.1z M179.2,249.1h15.1v14.9h-15.1V249.1z"
							/>
						<path id="rect2400" inkscape:connector-curvature="0" class="st7" d="M164.1,203.9v15h-14.9v15.1h14.9V249h-14.9v15.2h14.9v15
							h2.7c4.3-1.2,8.5-2.7,12.5-4.7v-10.3h15.1v0.8c0.4-0.3,0.7-0.6,1.1-0.9h-1.1v-14.9h15.2v0.8c0.3-0.3,0.5-0.6,0.8-0.9h-0.8
							v-14.9h11.1c1.4-2.4,2.8-4.9,4.1-7.5v-7.6h3.6c2.1-4.8,4.1-9.9,5.7-15.1h-9.3v15h-15.1v-15h-15.2v15h-15.1v-15H164.1z
							 M164.3,219.1h14.9V234h-14.9V219.1z M194.3,219.1h15.2V234h-15.2V219.1z M179.2,234.1h15.1V249h-15.1V234.1z M164.3,249.1
							h14.9v14.9h-14.9V249.1z"/>
					</g>
					<g id="g4869">
						<path id="rect4120" inkscape:connector-curvature="0" class="st8" d="M64.7,204c14.6,44.8,46.4,76,83.3,76.7V204H64.7z"/>
						<path id="path4717" inkscape:connector-curvature="0" class="st9" d="M81.5,217.3c-3.9-0.1-7.6,0.7-11.2,1.4
							c2.5,5.6,5.2,10.9,8.2,15.8c7.2-2.4,14.4-0.8,19.9,0.9c6.7,2,12.1-0.2,15.9-2.3c3.7-2.1,8.4-2.6,16.4,0.6
							c5.3,2.1,11.5,1.9,17.2,1.2v-14.1c-6.5,0.7-13,0.5-18.7-1.9c-8.2-3.5-16.9,0-20.7,1.3c-3.9,1.4-7.6,2.9-18-1
							C87.4,217.8,84.4,217.3,81.5,217.3z M97.3,247.3c-3.1-0.1-6,0.7-8.9,1.3c4.1,5,8.5,9.5,13.2,13.5c3.4,0.1,6.5,1,9.2,1.9
							c5.3,1.8,9.7-0.2,12.7-2.2c2.9-1.9,6.7-2.4,13,0.6c3.6,1.7,7.6,1.7,11.5,1.3v-13.1c-4.4,0.3-8.7-0.1-12.6-2
							c-6.5-3.2-13.4,0-16.4,1.2c-3.1,1.3-6.1,2.7-14.3-1C102,247.8,99.6,247.3,97.3,247.3z"/>
					</g>
					<path id="rect2572" inkscape:connector-curvature="0" class="st10" d="M144,204.1v1.1l3.3,3.7v11l-3.3,3.7v0.9v7.5v0.9l3.3,3.7
						v11l-2.8,3.1H144v8.4v0.6h0.5l2.8,3.1v11l-3.3,3.7v3.9c1.7,0.1,3.4,0.2,5.1,0.2c0.2,0,0.4,0,0.6,0v-3.1l3.4-3.7v-0.2v-12.5
						v-0.2l-3.4-3.7v-6l3.4-3.7v-0.2v-12.5v-0.2l-3.4-3.7v-7.5l3.4-3.7v-0.2v-12.5V208l-3.4-3.7v-0.2H144z"/>
				</g>
			</g>
			<g id="g5895">
				<path id="path5326" inkscape:connector-curvature="0" class="st9" d="M148.8,36.3c-5.5,3.9-8.8,9-8.2,16.2
					c1.4,6.6,2.9,13.4-2.9,13.1c-0.6,11.5,5.2,16.2,8.3,23.8c8.3,16.3,1.6,27-3,38.4l8.7,1.5c2.7-10.2,16.3-9,20.9-37.3
					c-3.3-2.6-4.9-5.5-0.9-9.4c-4.8-3-5.4-5.2-2.2-6.8c-4.3-1.6-7-3.6-2.9-7.2c-6.2,0.6-7.1-1.4-4.8-4.8
					C149,59.5,144.9,50.2,148.8,36.3z M157,64.5c0.6,0,1.1,0.6,1.1,1.3c0,0.7-0.5,1.3-1.1,1.3s-1.2-0.6-1.2-1.3
					C155.9,65.1,156.4,64.5,157,64.5z M161.5,71c0.6,0,1.1,0.6,1.1,1.3c0,0.7-0.5,1.3-1.1,1.3s-1.2-0.6-1.2-1.3
					C160.3,71.6,160.8,71,161.5,71z M164,76.3c0.1,0,0.1,0,0.2,0c0.6,0,1.1,0.6,1.1,1.3c0,0.7-0.5,1.3-1.1,1.3s-1.2-0.6-1.2-1.3
					C163.1,77,163.5,76.5,164,76.3z M166.4,83c0.6,0,1.1,0.6,1.1,1.3s-0.5,1.3-1.1,1.3c-0.6,0-1.2-0.6-1.2-1.3
					C165.2,83.6,165.8,83,166.4,83z M167.4,90.4c0.6,0,1.2,0.6,1.2,1.3c0,0.7-0.5,1.3-1.2,1.3c-0.6,0-1.1-0.6-1.1-1.3
					S166.8,90.4,167.4,90.4z"/>
				<g id="g5322">
					<path id="path5320" inkscape:connector-curvature="0" sodipodi:nodetypes="ccccccccc" class="st9" d="M146.5,149.6
						c-0.5-2.5,0.7-5.1-3.2-7.2c-5-3.8,0.8-5.2,2.9-7.5c-5.7-2.9-8.6-6.1-1.9-10c3.5,0.5,4.9-2.3,11.4,2.8c0.8,2.8-0.9,4.4-4.6,5.2
						c6.5,2.6,4.6,4.5,2.9,6.5c-5.6,3.7-2.9,7-3.7,10.4L146.5,149.6z"/>
					<path id="path5318" inkscape:connector-curvature="0" sodipodi:nodetypes="czzzszzzzzz" class="st11" d="M145.7,148.4h5.3
						c3.4,0,3.1,6,1.6,8.9c-1.4,2.9-1.1,5.2-0.3,7.2c0.9,2.2-0.4,4,0,7.5c0.8,6.8-2.8,14.6-6.8,15.1s-6.8-2.7-4.1-6s5.5-5.5,4.6-8.4
						c-1-2.9-0.5-5.1,0.1-8c0.6-2.8,0.7-4.1-1.3-7.4C143,154.1,145,148.4,145.7,148.4L145.7,148.4z"/>
				</g>
			</g>
		</g>
	</g>
</g>
</svg>
